M48
INCH,TZ
T1C0.0157
T2C0.0276
T3C0.0315
T4C0.0394
T5C0.0423
T6C0.0472
T7C0.0591
%
G90
G05
T1
X16250Y-57500
X21750Y-57500
X24250Y-47500
X26000Y-43750
X26000Y-57500
X28000Y-37250
X31500Y-65250
X32500Y-47000
X33400Y-44500
X33500Y-15500
X33500Y-17000
X33750Y-41750
X34000Y-53750
X34500Y-53750
X35000Y-44500
X35000Y-53750
X35000Y-68000
X35500Y-17000
X35500Y-53750
X39750Y-45750
X40000Y-56500
X40000Y-57500
X40750Y-49500
X41000Y-47000
X41500Y-47000
X43000Y-77250
X43000Y-80500
X44000Y-40250
X44000Y-41250
X44000Y-75000
X44500Y-41750
X44500Y-79250
X44750Y-77250
X45250Y-39750
X45250Y-40750
X45350Y-79150
X46000Y-77250
X46250Y-75000
X46250Y-79250
X46750Y-80500
X47050Y-38750
X47050Y-39850
X47250Y-41750
X47250Y-77250
X47500Y-40250
X47500Y-40750
X47650Y-39850
X47700Y-43100
X48350Y-43100
X48500Y-75000
X48500Y-76250
X48750Y-80500
X49750Y-61500
X49750Y-72750
X49750Y-77750
X49904Y-73346
X50000Y-74500
X51000Y-39250
X51000Y-39750
X51000Y-40750
X51000Y-41250
X51000Y-58000
X51000Y-58500
X51000Y-60250
X51250Y-73250
X51250Y-73750
X51350Y-72700
X51500Y-77750
X52000Y-45500
X52000Y-74750
X52000Y-75250
X52000Y-75750
X52000Y-76250
X52000Y-76750
X52000Y-77250
X52000Y-77750
X52000Y-78250
X52000Y-78750
X52000Y-79250
X52000Y-79750
X52000Y-80250
X52500Y-45500
X52500Y-49000
X52500Y-49500
X53454Y-70596
X53500Y-69250
X53500Y-72750
X53500Y-75750
X53500Y-76250
X53500Y-76750
X53500Y-77250
X53500Y-77750
X53500Y-78250
X53500Y-78750
X53500Y-79250
X53500Y-79750
X53500Y-80250
X54000Y-52000
X54500Y-52500
X56250Y-65750
X57750Y-75750
X57750Y-76250
X57750Y-76750
X57750Y-77250
X57750Y-77750
X57750Y-78250
X57750Y-78750
X57750Y-79250
X57750Y-79750
X57750Y-80250
X58000Y-31000
X58750Y-27750
X59250Y-72000
X59250Y-75750
X59250Y-76250
X59250Y-76750
X59250Y-77250
X59250Y-77750
X59250Y-78250
X59250Y-78750
X59250Y-79250
X59250Y-79750
X59250Y-80250
X60000Y-64750
X60585Y-67585
X61000Y-68451
X61100Y-58750
X61100Y-65250
X61500Y-70000
X62250Y-28500
X62250Y-32000
X63000Y-68500
X67000Y-67000
X67900Y-70850
X68000Y-70250
X68750Y-71250
X70750Y-68750
X70750Y-72750
T2
X20500Y-54250
X32000Y-38000
X32500Y-55000
X36250Y-46000
X36250Y-55000
X36950Y-43000
X37000Y-55750
X37250Y-61500
X38950Y-42900
X40750Y-39750
X41000Y-47850
X41000Y-48650
X41750Y-39750
X41750Y-43750
X42750Y-44750
X43150Y-49250
X43750Y-47100
X45250Y-45250
X45250Y-50000
X45500Y-48650
X47500Y-38000
X48250Y-45250
X48482Y-31518
X53000Y-65750
X54000Y-53000
X56250Y-72000
X57250Y-35750
X57250Y-37750
X57250Y-41250
X57250Y-44750
X57250Y-48250
X57250Y-69750
X58250Y-35750
X58281Y-39219
X58281Y-42719
X58281Y-46219
X58750Y-68000
X58750Y-74000
X59500Y-37750
X59500Y-41250
X59500Y-44750
X59500Y-48250
X61154Y-26846
X61154Y-30346
X61600Y-63700
X64250Y-62500
X66500Y-73000
T3
X23108Y-70203
X24250Y-67250
T4
X32000Y-47750
X36250Y-49250
X37750Y-53000
X52000Y-67250
X54750Y-74500
X22500Y-12160
X23500Y-12160
X24500Y-12160
X25500Y-12160
X26500Y-12160
X27500Y-12160
X28500Y-12160
X29500Y-12160
X30500Y-12160
X31500Y-12160
X32500Y-12160
X33500Y-12160
X34500Y-12160
X35500Y-12160
X36500Y-12160
X37500Y-12160
X37500Y-57000
X40000Y-66500
X42500Y-53750
X42500Y-54750
X34500Y-38250
X63250Y-78500
X31000Y-63000
X44000Y-58000
X31000Y-62000
X25000Y-37250
X37500Y-66500
X44000Y-64000
X31000Y-59000
X52000Y-59500
X53000Y-59500
X66000Y-26250
X67000Y-26250
X50250Y-48250
X50250Y-49250
X59500Y-19750
X59500Y-20750
X59500Y-21750
X59500Y-22750
X52000Y-63500
X53000Y-63500
X64000Y-52500
X39000Y-71750
X40000Y-71750
X34500Y-40250
X47000Y-51000
X48000Y-51000
X31000Y-61000
X41500Y-65250
X34500Y-39250
X56750Y-61250
X44000Y-62000
X31000Y-60000
X62000Y-42750
X62000Y-43750
X64000Y-28750
X64000Y-29750
X62000Y-46250
X62000Y-47250
X62000Y-35750
X62000Y-36750
X47000Y-53750
X48000Y-53750
X29750Y-42500
X62000Y-39250
X62000Y-40250
X32000Y-42500
X56750Y-47250
X56750Y-43750
X25000Y-38250
X37500Y-51000
X38500Y-51000
X63250Y-77500
X44000Y-63000
X56750Y-40250
X64000Y-57250
X35000Y-66500
X64000Y-54750
X63250Y-76500
X27000Y-42500
X56750Y-36750
X56750Y-51000
X57750Y-51000
X38000Y-76250
X39000Y-76250
X18500Y-52250
X19484Y-52250
X25000Y-40250
X44000Y-61000
X33500Y-65250
X34500Y-37250
X25000Y-39250
X31000Y-64000
X69000Y-65250
X69000Y-66250
X69000Y-67250
X35250Y-78000
X35250Y-79000
X44000Y-60000
X29750Y-36500
X44000Y-59000
X59000Y-30250
X65500Y-74500
X68500Y-74500
X64000Y-32250
X64000Y-33250
X55750Y-61250
X31000Y-58000
X64000Y-50000
X59000Y-33750
X24250Y-52250
X25234Y-52250
X66000Y-22500
X67000Y-22500
T5
X64000Y-21000
X65000Y-21000
X66000Y-21000
X67000Y-21000
T6
X65781Y-43750
X67751Y-42372
X20000Y-75031
X21378Y-77001
X65781Y-54244
X65781Y-57000
X67751Y-55622
X65781Y-29750
X67751Y-28372
X26175Y-67250
X26175Y-69250
X26175Y-79250
X33175Y-77250
X33175Y-79250
X65793Y-49378
X65793Y-52134
X67762Y-50756
X65781Y-36750
X67751Y-35372
X65781Y-33250
X67751Y-31872
X65781Y-40250
X67751Y-38872
X18499Y-46878
X18499Y-49634
X20469Y-45500
X20469Y-48256
X18499Y-37878
X18499Y-40634
X18499Y-43390
X20469Y-36500
X20469Y-39256
X20469Y-42012
X65781Y-47250
X67751Y-45872
T7
X20000Y-64102
X20000Y-73000
T0
M30
