G04 #@! TF.GenerationSoftware,KiCad,Pcbnew,5.1.5-52549c5~84~ubuntu19.04.1*
G04 #@! TF.CreationDate,2020-03-18T00:43:24+01:00*
G04 #@! TF.ProjectId,masterthesis-hardware,6d617374-6572-4746-9865-7369732d6861,v1.0*
G04 #@! TF.SameCoordinates,Original*
G04 #@! TF.FileFunction,Legend,Bot*
G04 #@! TF.FilePolarity,Positive*
%FSLAX46Y46*%
G04 Gerber Fmt 4.6, Leading zero omitted, Abs format (unit mm)*
G04 Created by KiCad (PCBNEW 5.1.5-52549c5~84~ubuntu19.04.1) date 2020-03-18 00:43:24*
%MOMM*%
%LPD*%
G04 APERTURE LIST*
%ADD10C,0.120000*%
%ADD11C,0.150000*%
G04 APERTURE END LIST*
D10*
X136151252Y-189940000D02*
X135628748Y-189940000D01*
X136151252Y-188520000D02*
X135628748Y-188520000D01*
X141978748Y-188520000D02*
X142501252Y-188520000D01*
X141978748Y-189940000D02*
X142501252Y-189940000D01*
X136151252Y-187400000D02*
X135628748Y-187400000D01*
X136151252Y-185980000D02*
X135628748Y-185980000D01*
X141220436Y-185780000D02*
X142424564Y-185780000D01*
X141220436Y-187600000D02*
X142424564Y-187600000D01*
X135815000Y-168536252D02*
X135815000Y-168013748D01*
X137235000Y-168536252D02*
X137235000Y-168013748D01*
X137235000Y-172458748D02*
X137235000Y-172981252D01*
X135815000Y-172458748D02*
X135815000Y-172981252D01*
X137655000Y-180620000D02*
X145890000Y-180620000D01*
X137655000Y-185140000D02*
X137655000Y-180620000D01*
X145890000Y-185140000D02*
X137655000Y-185140000D01*
X138355000Y-168536252D02*
X138355000Y-168013748D01*
X139775000Y-168536252D02*
X139775000Y-168013748D01*
X139975000Y-172117936D02*
X139975000Y-173322064D01*
X138155000Y-172117936D02*
X138155000Y-173322064D01*
X145135000Y-169405000D02*
X145135000Y-177640000D01*
X140615000Y-169405000D02*
X145135000Y-169405000D01*
X140615000Y-177640000D02*
X140615000Y-169405000D01*
D11*
X133357857Y-189587142D02*
X133405476Y-189634761D01*
X133548333Y-189682380D01*
X133643571Y-189682380D01*
X133786428Y-189634761D01*
X133881666Y-189539523D01*
X133929285Y-189444285D01*
X133976904Y-189253809D01*
X133976904Y-189110952D01*
X133929285Y-188920476D01*
X133881666Y-188825238D01*
X133786428Y-188730000D01*
X133643571Y-188682380D01*
X133548333Y-188682380D01*
X133405476Y-188730000D01*
X133357857Y-188777619D01*
X132976904Y-188777619D02*
X132929285Y-188730000D01*
X132834047Y-188682380D01*
X132595952Y-188682380D01*
X132500714Y-188730000D01*
X132453095Y-188777619D01*
X132405476Y-188872857D01*
X132405476Y-188968095D01*
X132453095Y-189110952D01*
X133024523Y-189682380D01*
X132405476Y-189682380D01*
X131500714Y-188682380D02*
X131976904Y-188682380D01*
X132024523Y-189158571D01*
X131976904Y-189110952D01*
X131881666Y-189063333D01*
X131643571Y-189063333D01*
X131548333Y-189110952D01*
X131500714Y-189158571D01*
X131453095Y-189253809D01*
X131453095Y-189491904D01*
X131500714Y-189587142D01*
X131548333Y-189634761D01*
X131643571Y-189682380D01*
X131881666Y-189682380D01*
X131976904Y-189634761D01*
X132024523Y-189587142D01*
X146057857Y-189587142D02*
X146105476Y-189634761D01*
X146248333Y-189682380D01*
X146343571Y-189682380D01*
X146486428Y-189634761D01*
X146581666Y-189539523D01*
X146629285Y-189444285D01*
X146676904Y-189253809D01*
X146676904Y-189110952D01*
X146629285Y-188920476D01*
X146581666Y-188825238D01*
X146486428Y-188730000D01*
X146343571Y-188682380D01*
X146248333Y-188682380D01*
X146105476Y-188730000D01*
X146057857Y-188777619D01*
X145676904Y-188777619D02*
X145629285Y-188730000D01*
X145534047Y-188682380D01*
X145295952Y-188682380D01*
X145200714Y-188730000D01*
X145153095Y-188777619D01*
X145105476Y-188872857D01*
X145105476Y-188968095D01*
X145153095Y-189110952D01*
X145724523Y-189682380D01*
X145105476Y-189682380D01*
X144248333Y-189015714D02*
X144248333Y-189682380D01*
X144486428Y-188634761D02*
X144724523Y-189349047D01*
X144105476Y-189349047D01*
X133357857Y-187047142D02*
X133405476Y-187094761D01*
X133548333Y-187142380D01*
X133643571Y-187142380D01*
X133786428Y-187094761D01*
X133881666Y-186999523D01*
X133929285Y-186904285D01*
X133976904Y-186713809D01*
X133976904Y-186570952D01*
X133929285Y-186380476D01*
X133881666Y-186285238D01*
X133786428Y-186190000D01*
X133643571Y-186142380D01*
X133548333Y-186142380D01*
X133405476Y-186190000D01*
X133357857Y-186237619D01*
X132976904Y-186237619D02*
X132929285Y-186190000D01*
X132834047Y-186142380D01*
X132595952Y-186142380D01*
X132500714Y-186190000D01*
X132453095Y-186237619D01*
X132405476Y-186332857D01*
X132405476Y-186428095D01*
X132453095Y-186570952D01*
X133024523Y-187142380D01*
X132405476Y-187142380D01*
X132024523Y-186237619D02*
X131976904Y-186190000D01*
X131881666Y-186142380D01*
X131643571Y-186142380D01*
X131548333Y-186190000D01*
X131500714Y-186237619D01*
X131453095Y-186332857D01*
X131453095Y-186428095D01*
X131500714Y-186570952D01*
X132072142Y-187142380D01*
X131453095Y-187142380D01*
X146275357Y-187047142D02*
X146322976Y-187094761D01*
X146465833Y-187142380D01*
X146561071Y-187142380D01*
X146703928Y-187094761D01*
X146799166Y-186999523D01*
X146846785Y-186904285D01*
X146894404Y-186713809D01*
X146894404Y-186570952D01*
X146846785Y-186380476D01*
X146799166Y-186285238D01*
X146703928Y-186190000D01*
X146561071Y-186142380D01*
X146465833Y-186142380D01*
X146322976Y-186190000D01*
X146275357Y-186237619D01*
X145894404Y-186237619D02*
X145846785Y-186190000D01*
X145751547Y-186142380D01*
X145513452Y-186142380D01*
X145418214Y-186190000D01*
X145370595Y-186237619D01*
X145322976Y-186332857D01*
X145322976Y-186428095D01*
X145370595Y-186570952D01*
X145942023Y-187142380D01*
X145322976Y-187142380D01*
X144370595Y-187142380D02*
X144942023Y-187142380D01*
X144656309Y-187142380D02*
X144656309Y-186142380D01*
X144751547Y-186285238D01*
X144846785Y-186380476D01*
X144942023Y-186428095D01*
X136532857Y-166092142D02*
X136580476Y-166139761D01*
X136723333Y-166187380D01*
X136818571Y-166187380D01*
X136961428Y-166139761D01*
X137056666Y-166044523D01*
X137104285Y-165949285D01*
X137151904Y-165758809D01*
X137151904Y-165615952D01*
X137104285Y-165425476D01*
X137056666Y-165330238D01*
X136961428Y-165235000D01*
X136818571Y-165187380D01*
X136723333Y-165187380D01*
X136580476Y-165235000D01*
X136532857Y-165282619D01*
X135580476Y-166187380D02*
X136151904Y-166187380D01*
X135866190Y-166187380D02*
X135866190Y-165187380D01*
X135961428Y-165330238D01*
X136056666Y-165425476D01*
X136151904Y-165473095D01*
X135104285Y-166187380D02*
X134913809Y-166187380D01*
X134818571Y-166139761D01*
X134770952Y-166092142D01*
X134675714Y-165949285D01*
X134628095Y-165758809D01*
X134628095Y-165377857D01*
X134675714Y-165282619D01*
X134723333Y-165235000D01*
X134818571Y-165187380D01*
X135009047Y-165187380D01*
X135104285Y-165235000D01*
X135151904Y-165282619D01*
X135199523Y-165377857D01*
X135199523Y-165615952D01*
X135151904Y-165711190D01*
X135104285Y-165758809D01*
X135009047Y-165806428D01*
X134818571Y-165806428D01*
X134723333Y-165758809D01*
X134675714Y-165711190D01*
X134628095Y-165615952D01*
X137167857Y-175617142D02*
X137215476Y-175664761D01*
X137358333Y-175712380D01*
X137453571Y-175712380D01*
X137596428Y-175664761D01*
X137691666Y-175569523D01*
X137739285Y-175474285D01*
X137786904Y-175283809D01*
X137786904Y-175140952D01*
X137739285Y-174950476D01*
X137691666Y-174855238D01*
X137596428Y-174760000D01*
X137453571Y-174712380D01*
X137358333Y-174712380D01*
X137215476Y-174760000D01*
X137167857Y-174807619D01*
X136215476Y-175712380D02*
X136786904Y-175712380D01*
X136501190Y-175712380D02*
X136501190Y-174712380D01*
X136596428Y-174855238D01*
X136691666Y-174950476D01*
X136786904Y-174998095D01*
X135358333Y-175045714D02*
X135358333Y-175712380D01*
X135596428Y-174664761D02*
X135834523Y-175379047D01*
X135215476Y-175379047D01*
X142882857Y-180062142D02*
X142930476Y-180109761D01*
X143073333Y-180157380D01*
X143168571Y-180157380D01*
X143311428Y-180109761D01*
X143406666Y-180014523D01*
X143454285Y-179919285D01*
X143501904Y-179728809D01*
X143501904Y-179585952D01*
X143454285Y-179395476D01*
X143406666Y-179300238D01*
X143311428Y-179205000D01*
X143168571Y-179157380D01*
X143073333Y-179157380D01*
X142930476Y-179205000D01*
X142882857Y-179252619D01*
X141930476Y-180157380D02*
X142501904Y-180157380D01*
X142216190Y-180157380D02*
X142216190Y-179157380D01*
X142311428Y-179300238D01*
X142406666Y-179395476D01*
X142501904Y-179443095D01*
X141597142Y-179157380D02*
X140978095Y-179157380D01*
X141311428Y-179538333D01*
X141168571Y-179538333D01*
X141073333Y-179585952D01*
X141025714Y-179633571D01*
X140978095Y-179728809D01*
X140978095Y-179966904D01*
X141025714Y-180062142D01*
X141073333Y-180109761D01*
X141168571Y-180157380D01*
X141454285Y-180157380D01*
X141549523Y-180109761D01*
X141597142Y-180062142D01*
X140342857Y-166092142D02*
X140390476Y-166139761D01*
X140533333Y-166187380D01*
X140628571Y-166187380D01*
X140771428Y-166139761D01*
X140866666Y-166044523D01*
X140914285Y-165949285D01*
X140961904Y-165758809D01*
X140961904Y-165615952D01*
X140914285Y-165425476D01*
X140866666Y-165330238D01*
X140771428Y-165235000D01*
X140628571Y-165187380D01*
X140533333Y-165187380D01*
X140390476Y-165235000D01*
X140342857Y-165282619D01*
X139390476Y-166187380D02*
X139961904Y-166187380D01*
X139676190Y-166187380D02*
X139676190Y-165187380D01*
X139771428Y-165330238D01*
X139866666Y-165425476D01*
X139961904Y-165473095D01*
X139009523Y-165282619D02*
X138961904Y-165235000D01*
X138866666Y-165187380D01*
X138628571Y-165187380D01*
X138533333Y-165235000D01*
X138485714Y-165282619D01*
X138438095Y-165377857D01*
X138438095Y-165473095D01*
X138485714Y-165615952D01*
X139057142Y-166187380D01*
X138438095Y-166187380D01*
X139707857Y-176633142D02*
X139755476Y-176680761D01*
X139898333Y-176728380D01*
X139993571Y-176728380D01*
X140136428Y-176680761D01*
X140231666Y-176585523D01*
X140279285Y-176490285D01*
X140326904Y-176299809D01*
X140326904Y-176156952D01*
X140279285Y-175966476D01*
X140231666Y-175871238D01*
X140136428Y-175776000D01*
X139993571Y-175728380D01*
X139898333Y-175728380D01*
X139755476Y-175776000D01*
X139707857Y-175823619D01*
X138755476Y-176728380D02*
X139326904Y-176728380D01*
X139041190Y-176728380D02*
X139041190Y-175728380D01*
X139136428Y-175871238D01*
X139231666Y-175966476D01*
X139326904Y-176014095D01*
X137803095Y-176728380D02*
X138374523Y-176728380D01*
X138088809Y-176728380D02*
X138088809Y-175728380D01*
X138184047Y-175871238D01*
X138279285Y-175966476D01*
X138374523Y-176014095D01*
X143517857Y-168632142D02*
X143565476Y-168679761D01*
X143708333Y-168727380D01*
X143803571Y-168727380D01*
X143946428Y-168679761D01*
X144041666Y-168584523D01*
X144089285Y-168489285D01*
X144136904Y-168298809D01*
X144136904Y-168155952D01*
X144089285Y-167965476D01*
X144041666Y-167870238D01*
X143946428Y-167775000D01*
X143803571Y-167727380D01*
X143708333Y-167727380D01*
X143565476Y-167775000D01*
X143517857Y-167822619D01*
X142565476Y-168727380D02*
X143136904Y-168727380D01*
X142851190Y-168727380D02*
X142851190Y-167727380D01*
X142946428Y-167870238D01*
X143041666Y-167965476D01*
X143136904Y-168013095D01*
X141946428Y-167727380D02*
X141851190Y-167727380D01*
X141755952Y-167775000D01*
X141708333Y-167822619D01*
X141660714Y-167917857D01*
X141613095Y-168108333D01*
X141613095Y-168346428D01*
X141660714Y-168536904D01*
X141708333Y-168632142D01*
X141755952Y-168679761D01*
X141851190Y-168727380D01*
X141946428Y-168727380D01*
X142041666Y-168679761D01*
X142089285Y-168632142D01*
X142136904Y-168536904D01*
X142184523Y-168346428D01*
X142184523Y-168108333D01*
X142136904Y-167917857D01*
X142089285Y-167822619D01*
X142041666Y-167775000D01*
X141946428Y-167727380D01*
M02*
