G04 #@! TF.GenerationSoftware,KiCad,Pcbnew,5.1.5-52549c5~84~ubuntu19.04.1*
G04 #@! TF.CreationDate,2020-03-18T00:43:25+01:00*
G04 #@! TF.ProjectId,masterthesis-hardware,6d617374-6572-4746-9865-7369732d6861,v1.0*
G04 #@! TF.SameCoordinates,Original*
G04 #@! TF.FileFunction,Soldermask,Bot*
G04 #@! TF.FilePolarity,Negative*
%FSLAX46Y46*%
G04 Gerber Fmt 4.6, Leading zero omitted, Abs format (unit mm)*
G04 Created by KiCad (PCBNEW 5.1.5-52549c5~84~ubuntu19.04.1) date 2020-03-18 00:43:25*
%MOMM*%
%LPD*%
G04 APERTURE LIST*
%ADD10C,0.100000*%
G04 APERTURE END LIST*
D10*
G36*
X179586521Y-231027639D02*
G01*
X179886947Y-231152080D01*
X180157324Y-231332740D01*
X180387260Y-231562676D01*
X180567920Y-231833053D01*
X180692361Y-232133479D01*
X180755800Y-232452410D01*
X180755800Y-232777590D01*
X180692361Y-233096521D01*
X180567920Y-233396947D01*
X180387260Y-233667324D01*
X180157324Y-233897260D01*
X179886947Y-234077920D01*
X179586521Y-234202361D01*
X179267590Y-234265800D01*
X178942410Y-234265800D01*
X178623479Y-234202361D01*
X178323053Y-234077920D01*
X178052676Y-233897260D01*
X177822740Y-233667324D01*
X177642080Y-233396947D01*
X177517639Y-233096521D01*
X177454200Y-232777590D01*
X177454200Y-232452410D01*
X177517639Y-232133479D01*
X177642080Y-231833053D01*
X177822740Y-231562676D01*
X178052676Y-231332740D01*
X178323053Y-231152080D01*
X178623479Y-231027639D01*
X178942410Y-230964200D01*
X179267590Y-230964200D01*
X179586521Y-231027639D01*
G37*
G36*
X41086521Y-231027639D02*
G01*
X41386947Y-231152080D01*
X41657324Y-231332740D01*
X41887260Y-231562676D01*
X42067920Y-231833053D01*
X42192361Y-232133479D01*
X42255800Y-232452410D01*
X42255800Y-232777590D01*
X42192361Y-233096521D01*
X42067920Y-233396947D01*
X41887260Y-233667324D01*
X41657324Y-233897260D01*
X41386947Y-234077920D01*
X41086521Y-234202361D01*
X40767590Y-234265800D01*
X40442410Y-234265800D01*
X40123479Y-234202361D01*
X39823053Y-234077920D01*
X39552676Y-233897260D01*
X39322740Y-233667324D01*
X39142080Y-233396947D01*
X39017639Y-233096521D01*
X38954200Y-232777590D01*
X38954200Y-232452410D01*
X39017639Y-232133479D01*
X39142080Y-231833053D01*
X39322740Y-231562676D01*
X39552676Y-231332740D01*
X39823053Y-231152080D01*
X40123479Y-231027639D01*
X40442410Y-230964200D01*
X40767590Y-230964200D01*
X41086521Y-231027639D01*
G37*
G36*
X131885800Y-205604800D02*
G01*
X130434200Y-205604800D01*
X130434200Y-201303200D01*
X131885800Y-201303200D01*
X131885800Y-205604800D01*
G37*
G36*
X137535800Y-205604800D02*
G01*
X136084200Y-205604800D01*
X136084200Y-201303200D01*
X137535800Y-201303200D01*
X137535800Y-205604800D01*
G37*
G36*
X146490800Y-205604800D02*
G01*
X145039200Y-205604800D01*
X145039200Y-201303200D01*
X146490800Y-201303200D01*
X146490800Y-205604800D01*
G37*
G36*
X152140800Y-205604800D02*
G01*
X150689200Y-205604800D01*
X150689200Y-201303200D01*
X152140800Y-201303200D01*
X152140800Y-205604800D01*
G37*
G36*
X66791507Y-200284582D02*
G01*
X66982740Y-200363793D01*
X67154846Y-200478791D01*
X67301209Y-200625154D01*
X67416207Y-200797260D01*
X67495418Y-200988493D01*
X67535800Y-201191505D01*
X67535800Y-201398495D01*
X67495418Y-201601507D01*
X67416207Y-201792740D01*
X67301209Y-201964846D01*
X67154846Y-202111209D01*
X66982740Y-202226207D01*
X66791507Y-202305418D01*
X66588495Y-202345800D01*
X66381505Y-202345800D01*
X66178493Y-202305418D01*
X65987260Y-202226207D01*
X65815154Y-202111209D01*
X65668791Y-201964846D01*
X65553793Y-201792740D01*
X65474582Y-201601507D01*
X65434200Y-201398495D01*
X65434200Y-201191505D01*
X65474582Y-200988493D01*
X65553793Y-200797260D01*
X65668791Y-200625154D01*
X65815154Y-200478791D01*
X65987260Y-200363793D01*
X66178493Y-200284582D01*
X66381505Y-200244200D01*
X66588495Y-200244200D01*
X66791507Y-200284582D01*
G37*
G36*
X84571507Y-200284582D02*
G01*
X84762740Y-200363793D01*
X84934846Y-200478791D01*
X85081209Y-200625154D01*
X85196207Y-200797260D01*
X85275418Y-200988493D01*
X85315800Y-201191505D01*
X85315800Y-201398495D01*
X85275418Y-201601507D01*
X85196207Y-201792740D01*
X85081209Y-201964846D01*
X84934846Y-202111209D01*
X84762740Y-202226207D01*
X84571507Y-202305418D01*
X84368495Y-202345800D01*
X84161505Y-202345800D01*
X83958493Y-202305418D01*
X83767260Y-202226207D01*
X83595154Y-202111209D01*
X83448791Y-201964846D01*
X83333793Y-201792740D01*
X83254582Y-201601507D01*
X83214200Y-201398495D01*
X83214200Y-201191505D01*
X83254582Y-200988493D01*
X83333793Y-200797260D01*
X83448791Y-200625154D01*
X83595154Y-200478791D01*
X83767260Y-200363793D01*
X83958493Y-200284582D01*
X84161505Y-200244200D01*
X84368495Y-200244200D01*
X84571507Y-200284582D01*
G37*
G36*
X89797754Y-199793817D02*
G01*
X89961689Y-199861721D01*
X90109227Y-199960303D01*
X90234697Y-200085773D01*
X90333279Y-200233311D01*
X90401183Y-200397246D01*
X90435800Y-200571279D01*
X90435800Y-200748721D01*
X90401183Y-200922754D01*
X90333279Y-201086689D01*
X90234697Y-201234227D01*
X90109227Y-201359697D01*
X89961689Y-201458279D01*
X89797754Y-201526183D01*
X89623721Y-201560800D01*
X89446279Y-201560800D01*
X89272246Y-201526183D01*
X89108311Y-201458279D01*
X88960773Y-201359697D01*
X88835303Y-201234227D01*
X88736721Y-201086689D01*
X88668817Y-200922754D01*
X88634200Y-200748721D01*
X88634200Y-200571279D01*
X88668817Y-200397246D01*
X88736721Y-200233311D01*
X88835303Y-200085773D01*
X88960773Y-199960303D01*
X89108311Y-199861721D01*
X89272246Y-199793817D01*
X89446279Y-199759200D01*
X89623721Y-199759200D01*
X89797754Y-199793817D01*
G37*
G36*
X161555800Y-200290800D02*
G01*
X159754200Y-200290800D01*
X159754200Y-198489200D01*
X161555800Y-198489200D01*
X161555800Y-200290800D01*
G37*
G36*
X90435800Y-199020800D02*
G01*
X88634200Y-199020800D01*
X88634200Y-197219200D01*
X90435800Y-197219200D01*
X90435800Y-199020800D01*
G37*
G36*
X161555800Y-197750800D02*
G01*
X159754200Y-197750800D01*
X159754200Y-195949200D01*
X161555800Y-195949200D01*
X161555800Y-197750800D01*
G37*
G36*
X84571507Y-195204582D02*
G01*
X84762740Y-195283793D01*
X84934846Y-195398791D01*
X85081209Y-195545154D01*
X85196207Y-195717260D01*
X85275418Y-195908493D01*
X85315800Y-196111505D01*
X85315800Y-196318495D01*
X85275418Y-196521507D01*
X85196207Y-196712740D01*
X85081209Y-196884846D01*
X84934846Y-197031209D01*
X84762740Y-197146207D01*
X84571507Y-197225418D01*
X84368495Y-197265800D01*
X84161505Y-197265800D01*
X83958493Y-197225418D01*
X83767260Y-197146207D01*
X83595154Y-197031209D01*
X83448791Y-196884846D01*
X83333793Y-196712740D01*
X83254582Y-196521507D01*
X83214200Y-196318495D01*
X83214200Y-196111505D01*
X83254582Y-195908493D01*
X83333793Y-195717260D01*
X83448791Y-195545154D01*
X83595154Y-195398791D01*
X83767260Y-195283793D01*
X83958493Y-195204582D01*
X84161505Y-195164200D01*
X84368495Y-195164200D01*
X84571507Y-195204582D01*
G37*
G36*
X54524510Y-194453112D02*
G01*
X54635677Y-194475225D01*
X54845108Y-194561974D01*
X55033593Y-194687915D01*
X55193885Y-194848207D01*
X55319826Y-195036692D01*
X55391944Y-195210800D01*
X55406575Y-195246124D01*
X55450800Y-195468456D01*
X55450800Y-195695144D01*
X55428688Y-195806310D01*
X55406575Y-195917477D01*
X55319826Y-196126908D01*
X55193885Y-196315393D01*
X55033593Y-196475685D01*
X54845108Y-196601626D01*
X54635677Y-196688375D01*
X54524510Y-196710487D01*
X54413344Y-196732600D01*
X54186656Y-196732600D01*
X54075490Y-196710487D01*
X53964323Y-196688375D01*
X53754892Y-196601626D01*
X53566407Y-196475685D01*
X53406115Y-196315393D01*
X53280174Y-196126908D01*
X53193425Y-195917477D01*
X53171313Y-195806310D01*
X53149200Y-195695144D01*
X53149200Y-195468456D01*
X53193425Y-195246124D01*
X53208057Y-195210800D01*
X53280174Y-195036692D01*
X53406115Y-194848207D01*
X53566407Y-194687915D01*
X53754892Y-194561974D01*
X53964323Y-194475225D01*
X54075490Y-194453112D01*
X54186656Y-194431000D01*
X54413344Y-194431000D01*
X54524510Y-194453112D01*
G37*
G36*
X161555800Y-195210800D02*
G01*
X159754200Y-195210800D01*
X159754200Y-193409200D01*
X161555800Y-193409200D01*
X161555800Y-195210800D01*
G37*
G36*
X97420800Y-194575800D02*
G01*
X95619200Y-194575800D01*
X95619200Y-192774200D01*
X97420800Y-192774200D01*
X97420800Y-194575800D01*
G37*
G36*
X99322754Y-192808817D02*
G01*
X99486689Y-192876721D01*
X99634227Y-192975303D01*
X99759697Y-193100773D01*
X99858279Y-193248311D01*
X99926183Y-193412246D01*
X99960800Y-193586279D01*
X99960800Y-193763721D01*
X99926183Y-193937754D01*
X99858279Y-194101689D01*
X99759697Y-194249227D01*
X99634227Y-194374697D01*
X99486689Y-194473279D01*
X99322754Y-194541183D01*
X99148721Y-194575800D01*
X98971279Y-194575800D01*
X98797246Y-194541183D01*
X98633311Y-194473279D01*
X98485773Y-194374697D01*
X98360303Y-194249227D01*
X98261721Y-194101689D01*
X98193817Y-193937754D01*
X98159200Y-193763721D01*
X98159200Y-193586279D01*
X98193817Y-193412246D01*
X98261721Y-193248311D01*
X98360303Y-193100773D01*
X98485773Y-192975303D01*
X98633311Y-192876721D01*
X98797246Y-192808817D01*
X98971279Y-192774200D01*
X99148721Y-192774200D01*
X99322754Y-192808817D01*
G37*
G36*
X51950800Y-191730800D02*
G01*
X49649200Y-191730800D01*
X49649200Y-189429200D01*
X51950800Y-189429200D01*
X51950800Y-191730800D01*
G37*
G36*
X167270800Y-190130800D02*
G01*
X165469200Y-190130800D01*
X165469200Y-188329200D01*
X167270800Y-188329200D01*
X167270800Y-190130800D01*
G37*
G36*
X174890800Y-190130800D02*
G01*
X173089200Y-190130800D01*
X173089200Y-188329200D01*
X174890800Y-188329200D01*
X174890800Y-190130800D01*
G37*
G36*
X135329449Y-188483650D02*
G01*
X135366914Y-188495015D01*
X135401438Y-188513469D01*
X135431698Y-188538302D01*
X135456531Y-188568562D01*
X135474985Y-188603086D01*
X135486350Y-188640551D01*
X135490800Y-188685738D01*
X135490800Y-189774262D01*
X135486350Y-189819449D01*
X135474985Y-189856914D01*
X135456531Y-189891438D01*
X135431698Y-189921698D01*
X135401438Y-189946531D01*
X135366914Y-189964985D01*
X135329449Y-189976350D01*
X135284262Y-189980800D01*
X134445738Y-189980800D01*
X134400551Y-189976350D01*
X134363086Y-189964985D01*
X134328562Y-189946531D01*
X134298302Y-189921698D01*
X134273469Y-189891438D01*
X134255015Y-189856914D01*
X134243650Y-189819449D01*
X134239200Y-189774262D01*
X134239200Y-188685738D01*
X134243650Y-188640551D01*
X134255015Y-188603086D01*
X134273469Y-188568562D01*
X134298302Y-188538302D01*
X134328562Y-188513469D01*
X134363086Y-188495015D01*
X134400551Y-188483650D01*
X134445738Y-188479200D01*
X135284262Y-188479200D01*
X135329449Y-188483650D01*
G37*
G36*
X137379449Y-188483650D02*
G01*
X137416914Y-188495015D01*
X137451438Y-188513469D01*
X137481698Y-188538302D01*
X137506531Y-188568562D01*
X137524985Y-188603086D01*
X137536350Y-188640551D01*
X137540800Y-188685738D01*
X137540800Y-189774262D01*
X137536350Y-189819449D01*
X137524985Y-189856914D01*
X137506531Y-189891438D01*
X137481698Y-189921698D01*
X137451438Y-189946531D01*
X137416914Y-189964985D01*
X137379449Y-189976350D01*
X137334262Y-189980800D01*
X136495738Y-189980800D01*
X136450551Y-189976350D01*
X136413086Y-189964985D01*
X136378562Y-189946531D01*
X136348302Y-189921698D01*
X136323469Y-189891438D01*
X136305015Y-189856914D01*
X136293650Y-189819449D01*
X136289200Y-189774262D01*
X136289200Y-188685738D01*
X136293650Y-188640551D01*
X136305015Y-188603086D01*
X136323469Y-188568562D01*
X136348302Y-188538302D01*
X136378562Y-188513469D01*
X136413086Y-188495015D01*
X136450551Y-188483650D01*
X136495738Y-188479200D01*
X137334262Y-188479200D01*
X137379449Y-188483650D01*
G37*
G36*
X143729449Y-188483650D02*
G01*
X143766914Y-188495015D01*
X143801438Y-188513469D01*
X143831698Y-188538302D01*
X143856531Y-188568562D01*
X143874985Y-188603086D01*
X143886350Y-188640551D01*
X143890800Y-188685738D01*
X143890800Y-189774262D01*
X143886350Y-189819449D01*
X143874985Y-189856914D01*
X143856531Y-189891438D01*
X143831698Y-189921698D01*
X143801438Y-189946531D01*
X143766914Y-189964985D01*
X143729449Y-189976350D01*
X143684262Y-189980800D01*
X142845738Y-189980800D01*
X142800551Y-189976350D01*
X142763086Y-189964985D01*
X142728562Y-189946531D01*
X142698302Y-189921698D01*
X142673469Y-189891438D01*
X142655015Y-189856914D01*
X142643650Y-189819449D01*
X142639200Y-189774262D01*
X142639200Y-188685738D01*
X142643650Y-188640551D01*
X142655015Y-188603086D01*
X142673469Y-188568562D01*
X142698302Y-188538302D01*
X142728562Y-188513469D01*
X142763086Y-188495015D01*
X142800551Y-188483650D01*
X142845738Y-188479200D01*
X143684262Y-188479200D01*
X143729449Y-188483650D01*
G37*
G36*
X141679449Y-188483650D02*
G01*
X141716914Y-188495015D01*
X141751438Y-188513469D01*
X141781698Y-188538302D01*
X141806531Y-188568562D01*
X141824985Y-188603086D01*
X141836350Y-188640551D01*
X141840800Y-188685738D01*
X141840800Y-189774262D01*
X141836350Y-189819449D01*
X141824985Y-189856914D01*
X141806531Y-189891438D01*
X141781698Y-189921698D01*
X141751438Y-189946531D01*
X141716914Y-189964985D01*
X141679449Y-189976350D01*
X141634262Y-189980800D01*
X140795738Y-189980800D01*
X140750551Y-189976350D01*
X140713086Y-189964985D01*
X140678562Y-189946531D01*
X140648302Y-189921698D01*
X140623469Y-189891438D01*
X140605015Y-189856914D01*
X140593650Y-189819449D01*
X140589200Y-189774262D01*
X140589200Y-188685738D01*
X140593650Y-188640551D01*
X140605015Y-188603086D01*
X140623469Y-188568562D01*
X140648302Y-188538302D01*
X140678562Y-188513469D01*
X140713086Y-188495015D01*
X140750551Y-188483650D01*
X140795738Y-188479200D01*
X141634262Y-188479200D01*
X141679449Y-188483650D01*
G37*
G36*
X140948964Y-185768365D02*
G01*
X140983618Y-185778878D01*
X141015567Y-185795955D01*
X141043566Y-185818934D01*
X141066545Y-185846933D01*
X141083622Y-185878882D01*
X141094135Y-185913536D01*
X141098300Y-185955830D01*
X141098300Y-187424170D01*
X141094135Y-187466464D01*
X141083622Y-187501118D01*
X141066545Y-187533067D01*
X141043566Y-187561066D01*
X141015567Y-187584045D01*
X140983618Y-187601122D01*
X140948964Y-187611635D01*
X140906670Y-187615800D01*
X139763330Y-187615800D01*
X139721036Y-187611635D01*
X139686382Y-187601122D01*
X139654433Y-187584045D01*
X139626434Y-187561066D01*
X139603455Y-187533067D01*
X139586378Y-187501118D01*
X139575865Y-187466464D01*
X139571700Y-187424170D01*
X139571700Y-185955830D01*
X139575865Y-185913536D01*
X139586378Y-185878882D01*
X139603455Y-185846933D01*
X139626434Y-185818934D01*
X139654433Y-185795955D01*
X139686382Y-185778878D01*
X139721036Y-185768365D01*
X139763330Y-185764200D01*
X140906670Y-185764200D01*
X140948964Y-185768365D01*
G37*
G36*
X143923964Y-185768365D02*
G01*
X143958618Y-185778878D01*
X143990567Y-185795955D01*
X144018566Y-185818934D01*
X144041545Y-185846933D01*
X144058622Y-185878882D01*
X144069135Y-185913536D01*
X144073300Y-185955830D01*
X144073300Y-187424170D01*
X144069135Y-187466464D01*
X144058622Y-187501118D01*
X144041545Y-187533067D01*
X144018566Y-187561066D01*
X143990567Y-187584045D01*
X143958618Y-187601122D01*
X143923964Y-187611635D01*
X143881670Y-187615800D01*
X142738330Y-187615800D01*
X142696036Y-187611635D01*
X142661382Y-187601122D01*
X142629433Y-187584045D01*
X142601434Y-187561066D01*
X142578455Y-187533067D01*
X142561378Y-187501118D01*
X142550865Y-187466464D01*
X142546700Y-187424170D01*
X142546700Y-185955830D01*
X142550865Y-185913536D01*
X142561378Y-185878882D01*
X142578455Y-185846933D01*
X142601434Y-185818934D01*
X142629433Y-185795955D01*
X142661382Y-185778878D01*
X142696036Y-185768365D01*
X142738330Y-185764200D01*
X143881670Y-185764200D01*
X143923964Y-185768365D01*
G37*
G36*
X137379449Y-185943650D02*
G01*
X137416914Y-185955015D01*
X137451438Y-185973469D01*
X137481698Y-185998302D01*
X137506531Y-186028562D01*
X137524985Y-186063086D01*
X137536350Y-186100551D01*
X137540800Y-186145738D01*
X137540800Y-187234262D01*
X137536350Y-187279449D01*
X137524985Y-187316914D01*
X137506531Y-187351438D01*
X137481698Y-187381698D01*
X137451438Y-187406531D01*
X137416914Y-187424985D01*
X137379449Y-187436350D01*
X137334262Y-187440800D01*
X136495738Y-187440800D01*
X136450551Y-187436350D01*
X136413086Y-187424985D01*
X136378562Y-187406531D01*
X136348302Y-187381698D01*
X136323469Y-187351438D01*
X136305015Y-187316914D01*
X136293650Y-187279449D01*
X136289200Y-187234262D01*
X136289200Y-186145738D01*
X136293650Y-186100551D01*
X136305015Y-186063086D01*
X136323469Y-186028562D01*
X136348302Y-185998302D01*
X136378562Y-185973469D01*
X136413086Y-185955015D01*
X136450551Y-185943650D01*
X136495738Y-185939200D01*
X137334262Y-185939200D01*
X137379449Y-185943650D01*
G37*
G36*
X135329449Y-185943650D02*
G01*
X135366914Y-185955015D01*
X135401438Y-185973469D01*
X135431698Y-185998302D01*
X135456531Y-186028562D01*
X135474985Y-186063086D01*
X135486350Y-186100551D01*
X135490800Y-186145738D01*
X135490800Y-187234262D01*
X135486350Y-187279449D01*
X135474985Y-187316914D01*
X135456531Y-187351438D01*
X135431698Y-187381698D01*
X135401438Y-187406531D01*
X135366914Y-187424985D01*
X135329449Y-187436350D01*
X135284262Y-187440800D01*
X134445738Y-187440800D01*
X134400551Y-187436350D01*
X134363086Y-187424985D01*
X134328562Y-187406531D01*
X134298302Y-187381698D01*
X134273469Y-187351438D01*
X134255015Y-187316914D01*
X134243650Y-187279449D01*
X134239200Y-187234262D01*
X134239200Y-186145738D01*
X134243650Y-186100551D01*
X134255015Y-186063086D01*
X134273469Y-186028562D01*
X134298302Y-185998302D01*
X134328562Y-185973469D01*
X134363086Y-185955015D01*
X134400551Y-185943650D01*
X134445738Y-185939200D01*
X135284262Y-185939200D01*
X135329449Y-185943650D01*
G37*
G36*
X51252352Y-183928796D02*
G01*
X51534579Y-184045699D01*
X51788578Y-184215415D01*
X52004585Y-184431422D01*
X52174301Y-184685421D01*
X52291204Y-184967648D01*
X52350800Y-185267259D01*
X52350800Y-185572741D01*
X52291204Y-185872352D01*
X52174301Y-186154579D01*
X52004585Y-186408578D01*
X51788578Y-186624585D01*
X51534579Y-186794301D01*
X51252352Y-186911204D01*
X50952741Y-186970800D01*
X50647259Y-186970800D01*
X50347648Y-186911204D01*
X50065421Y-186794301D01*
X49811422Y-186624585D01*
X49595415Y-186408578D01*
X49425699Y-186154579D01*
X49308796Y-185872352D01*
X49249200Y-185572741D01*
X49249200Y-185267259D01*
X49308796Y-184967648D01*
X49425699Y-184685421D01*
X49595415Y-184431422D01*
X49811422Y-184215415D01*
X50065421Y-184045699D01*
X50347648Y-183928796D01*
X50647259Y-183869200D01*
X50952741Y-183869200D01*
X51252352Y-183928796D01*
G37*
G36*
X146484873Y-181557925D02*
G01*
X146515245Y-181567138D01*
X146543232Y-181582097D01*
X146567767Y-181602233D01*
X146587903Y-181626768D01*
X146602862Y-181654755D01*
X146612075Y-181685127D01*
X146615800Y-181722945D01*
X146615800Y-184037055D01*
X146612075Y-184074873D01*
X146602862Y-184105245D01*
X146587903Y-184133232D01*
X146567767Y-184157767D01*
X146543232Y-184177903D01*
X146515245Y-184192862D01*
X146484873Y-184202075D01*
X146447055Y-184205800D01*
X144432945Y-184205800D01*
X144395127Y-184202075D01*
X144364755Y-184192862D01*
X144336768Y-184177903D01*
X144312233Y-184157767D01*
X144292097Y-184133232D01*
X144277138Y-184105245D01*
X144267925Y-184074873D01*
X144264200Y-184037055D01*
X144264200Y-181722945D01*
X144267925Y-181685127D01*
X144277138Y-181654755D01*
X144292097Y-181626768D01*
X144312233Y-181602233D01*
X144336768Y-181582097D01*
X144364755Y-181567138D01*
X144395127Y-181557925D01*
X144432945Y-181554200D01*
X146447055Y-181554200D01*
X146484873Y-181557925D01*
G37*
G36*
X140084873Y-181557925D02*
G01*
X140115245Y-181567138D01*
X140143232Y-181582097D01*
X140167767Y-181602233D01*
X140187903Y-181626768D01*
X140202862Y-181654755D01*
X140212075Y-181685127D01*
X140215800Y-181722945D01*
X140215800Y-184037055D01*
X140212075Y-184074873D01*
X140202862Y-184105245D01*
X140187903Y-184133232D01*
X140167767Y-184157767D01*
X140143232Y-184177903D01*
X140115245Y-184192862D01*
X140084873Y-184202075D01*
X140047055Y-184205800D01*
X138032945Y-184205800D01*
X137995127Y-184202075D01*
X137964755Y-184192862D01*
X137936768Y-184177903D01*
X137912233Y-184157767D01*
X137892097Y-184133232D01*
X137877138Y-184105245D01*
X137867925Y-184074873D01*
X137864200Y-184037055D01*
X137864200Y-181722945D01*
X137867925Y-181685127D01*
X137877138Y-181654755D01*
X137892097Y-181626768D01*
X137912233Y-181602233D01*
X137936768Y-181582097D01*
X137964755Y-181567138D01*
X137995127Y-181557925D01*
X138032945Y-181554200D01*
X140047055Y-181554200D01*
X140084873Y-181557925D01*
G37*
G36*
X101862754Y-181378817D02*
G01*
X102026689Y-181446721D01*
X102174227Y-181545303D01*
X102299697Y-181670773D01*
X102398279Y-181818311D01*
X102466183Y-181982246D01*
X102500800Y-182156279D01*
X102500800Y-182333721D01*
X102466183Y-182507754D01*
X102398279Y-182671689D01*
X102299697Y-182819227D01*
X102174227Y-182944697D01*
X102026689Y-183043279D01*
X101862754Y-183111183D01*
X101688721Y-183145800D01*
X101511279Y-183145800D01*
X101337246Y-183111183D01*
X101173311Y-183043279D01*
X101025773Y-182944697D01*
X100900303Y-182819227D01*
X100801721Y-182671689D01*
X100733817Y-182507754D01*
X100699200Y-182333721D01*
X100699200Y-182156279D01*
X100733817Y-181982246D01*
X100801721Y-181818311D01*
X100900303Y-181670773D01*
X101025773Y-181545303D01*
X101173311Y-181446721D01*
X101337246Y-181378817D01*
X101511279Y-181344200D01*
X101688721Y-181344200D01*
X101862754Y-181378817D01*
G37*
G36*
X99960800Y-183145800D02*
G01*
X98159200Y-183145800D01*
X98159200Y-181344200D01*
X99960800Y-181344200D01*
X99960800Y-183145800D01*
G37*
G36*
X58972338Y-177400738D02*
G01*
X59145373Y-177472412D01*
X59301100Y-177576465D01*
X59433535Y-177708900D01*
X59537588Y-177864627D01*
X59609262Y-178037662D01*
X59645800Y-178221354D01*
X59645800Y-178408646D01*
X59609262Y-178592338D01*
X59537588Y-178765373D01*
X59433535Y-178921100D01*
X59301100Y-179053535D01*
X59145373Y-179157588D01*
X58972338Y-179229262D01*
X58788646Y-179265800D01*
X58601354Y-179265800D01*
X58417662Y-179229262D01*
X58244627Y-179157588D01*
X58088900Y-179053535D01*
X57956465Y-178921100D01*
X57852412Y-178765373D01*
X57780738Y-178592338D01*
X57744200Y-178408646D01*
X57744200Y-178221354D01*
X57780738Y-178037662D01*
X57852412Y-177864627D01*
X57956465Y-177708900D01*
X58088900Y-177576465D01*
X58244627Y-177472412D01*
X58417662Y-177400738D01*
X58601354Y-177364200D01*
X58788646Y-177364200D01*
X58972338Y-177400738D01*
G37*
G36*
X144069873Y-176017925D02*
G01*
X144100245Y-176027138D01*
X144128232Y-176042097D01*
X144152767Y-176062233D01*
X144172903Y-176086768D01*
X144187862Y-176114755D01*
X144197075Y-176145127D01*
X144200800Y-176182945D01*
X144200800Y-178197055D01*
X144197075Y-178234873D01*
X144187862Y-178265245D01*
X144172903Y-178293232D01*
X144152767Y-178317767D01*
X144128232Y-178337903D01*
X144100245Y-178352862D01*
X144069873Y-178362075D01*
X144032055Y-178365800D01*
X141717945Y-178365800D01*
X141680127Y-178362075D01*
X141649755Y-178352862D01*
X141621768Y-178337903D01*
X141597233Y-178317767D01*
X141577097Y-178293232D01*
X141562138Y-178265245D01*
X141552925Y-178234873D01*
X141549200Y-178197055D01*
X141549200Y-176182945D01*
X141552925Y-176145127D01*
X141562138Y-176114755D01*
X141577097Y-176086768D01*
X141597233Y-176062233D01*
X141621768Y-176042097D01*
X141649755Y-176027138D01*
X141680127Y-176017925D01*
X141717945Y-176014200D01*
X144032055Y-176014200D01*
X144069873Y-176017925D01*
G37*
G36*
X66791507Y-174884582D02*
G01*
X66982740Y-174963793D01*
X67154846Y-175078791D01*
X67301209Y-175225154D01*
X67416207Y-175397260D01*
X67495418Y-175588493D01*
X67535800Y-175791505D01*
X67535800Y-175998495D01*
X67495418Y-176201507D01*
X67416207Y-176392740D01*
X67301209Y-176564846D01*
X67154846Y-176711209D01*
X66982740Y-176826207D01*
X66791507Y-176905418D01*
X66588495Y-176945800D01*
X66381505Y-176945800D01*
X66178493Y-176905418D01*
X65987260Y-176826207D01*
X65815154Y-176711209D01*
X65668791Y-176564846D01*
X65553793Y-176392740D01*
X65474582Y-176201507D01*
X65434200Y-175998495D01*
X65434200Y-175791505D01*
X65474582Y-175588493D01*
X65553793Y-175397260D01*
X65668791Y-175225154D01*
X65815154Y-175078791D01*
X65987260Y-174963793D01*
X66178493Y-174884582D01*
X66381505Y-174844200D01*
X66588495Y-174844200D01*
X66791507Y-174884582D01*
G37*
G36*
X139841464Y-173448365D02*
G01*
X139876118Y-173458878D01*
X139908067Y-173475955D01*
X139936066Y-173498934D01*
X139959045Y-173526933D01*
X139976122Y-173558882D01*
X139986635Y-173593536D01*
X139990800Y-173635830D01*
X139990800Y-174779170D01*
X139986635Y-174821464D01*
X139976122Y-174856118D01*
X139959045Y-174888067D01*
X139936066Y-174916066D01*
X139908067Y-174939045D01*
X139876118Y-174956122D01*
X139841464Y-174966635D01*
X139799170Y-174970800D01*
X138330830Y-174970800D01*
X138288536Y-174966635D01*
X138253882Y-174956122D01*
X138221933Y-174939045D01*
X138193934Y-174916066D01*
X138170955Y-174888067D01*
X138153878Y-174856118D01*
X138143365Y-174821464D01*
X138139200Y-174779170D01*
X138139200Y-173635830D01*
X138143365Y-173593536D01*
X138153878Y-173558882D01*
X138170955Y-173526933D01*
X138193934Y-173498934D01*
X138221933Y-173475955D01*
X138253882Y-173458878D01*
X138288536Y-173448365D01*
X138330830Y-173444200D01*
X139799170Y-173444200D01*
X139841464Y-173448365D01*
G37*
G36*
X137114449Y-173123650D02*
G01*
X137151914Y-173135015D01*
X137186438Y-173153469D01*
X137216698Y-173178302D01*
X137241531Y-173208562D01*
X137259985Y-173243086D01*
X137271350Y-173280551D01*
X137275800Y-173325738D01*
X137275800Y-174164262D01*
X137271350Y-174209449D01*
X137259985Y-174246914D01*
X137241531Y-174281438D01*
X137216698Y-174311698D01*
X137186438Y-174336531D01*
X137151914Y-174354985D01*
X137114449Y-174366350D01*
X137069262Y-174370800D01*
X135980738Y-174370800D01*
X135935551Y-174366350D01*
X135898086Y-174354985D01*
X135863562Y-174336531D01*
X135833302Y-174311698D01*
X135808469Y-174281438D01*
X135790015Y-174246914D01*
X135778650Y-174209449D01*
X135774200Y-174164262D01*
X135774200Y-173325738D01*
X135778650Y-173280551D01*
X135790015Y-173243086D01*
X135808469Y-173208562D01*
X135833302Y-173178302D01*
X135863562Y-173153469D01*
X135898086Y-173135015D01*
X135935551Y-173123650D01*
X135980738Y-173119200D01*
X137069262Y-173119200D01*
X137114449Y-173123650D01*
G37*
G36*
X137114449Y-171073650D02*
G01*
X137151914Y-171085015D01*
X137186438Y-171103469D01*
X137216698Y-171128302D01*
X137241531Y-171158562D01*
X137259985Y-171193086D01*
X137271350Y-171230551D01*
X137275800Y-171275738D01*
X137275800Y-172114262D01*
X137271350Y-172159449D01*
X137259985Y-172196914D01*
X137241531Y-172231438D01*
X137216698Y-172261698D01*
X137186438Y-172286531D01*
X137151914Y-172304985D01*
X137114449Y-172316350D01*
X137069262Y-172320800D01*
X135980738Y-172320800D01*
X135935551Y-172316350D01*
X135898086Y-172304985D01*
X135863562Y-172286531D01*
X135833302Y-172261698D01*
X135808469Y-172231438D01*
X135790015Y-172196914D01*
X135778650Y-172159449D01*
X135774200Y-172114262D01*
X135774200Y-171275738D01*
X135778650Y-171230551D01*
X135790015Y-171193086D01*
X135808469Y-171158562D01*
X135833302Y-171128302D01*
X135863562Y-171103469D01*
X135898086Y-171085015D01*
X135935551Y-171073650D01*
X135980738Y-171069200D01*
X137069262Y-171069200D01*
X137114449Y-171073650D01*
G37*
G36*
X139841464Y-170473365D02*
G01*
X139876118Y-170483878D01*
X139908067Y-170500955D01*
X139936066Y-170523934D01*
X139959045Y-170551933D01*
X139976122Y-170583882D01*
X139986635Y-170618536D01*
X139990800Y-170660830D01*
X139990800Y-171804170D01*
X139986635Y-171846464D01*
X139976122Y-171881118D01*
X139959045Y-171913067D01*
X139936066Y-171941066D01*
X139908067Y-171964045D01*
X139876118Y-171981122D01*
X139841464Y-171991635D01*
X139799170Y-171995800D01*
X138330830Y-171995800D01*
X138288536Y-171991635D01*
X138253882Y-171981122D01*
X138221933Y-171964045D01*
X138193934Y-171941066D01*
X138170955Y-171913067D01*
X138153878Y-171881118D01*
X138143365Y-171846464D01*
X138139200Y-171804170D01*
X138139200Y-170660830D01*
X138143365Y-170618536D01*
X138153878Y-170583882D01*
X138170955Y-170551933D01*
X138193934Y-170523934D01*
X138221933Y-170500955D01*
X138253882Y-170483878D01*
X138288536Y-170473365D01*
X138330830Y-170469200D01*
X139799170Y-170469200D01*
X139841464Y-170473365D01*
G37*
G36*
X144069873Y-169617925D02*
G01*
X144100245Y-169627138D01*
X144128232Y-169642097D01*
X144152767Y-169662233D01*
X144172903Y-169686768D01*
X144187862Y-169714755D01*
X144197075Y-169745127D01*
X144200800Y-169782945D01*
X144200800Y-171797055D01*
X144197075Y-171834873D01*
X144187862Y-171865245D01*
X144172903Y-171893232D01*
X144152767Y-171917767D01*
X144128232Y-171937903D01*
X144100245Y-171952862D01*
X144069873Y-171962075D01*
X144032055Y-171965800D01*
X141717945Y-171965800D01*
X141680127Y-171962075D01*
X141649755Y-171952862D01*
X141621768Y-171937903D01*
X141597233Y-171917767D01*
X141577097Y-171893232D01*
X141562138Y-171865245D01*
X141552925Y-171834873D01*
X141549200Y-171797055D01*
X141549200Y-169782945D01*
X141552925Y-169745127D01*
X141562138Y-169714755D01*
X141577097Y-169686768D01*
X141597233Y-169662233D01*
X141621768Y-169642097D01*
X141649755Y-169627138D01*
X141680127Y-169617925D01*
X141717945Y-169614200D01*
X144032055Y-169614200D01*
X144069873Y-169617925D01*
G37*
G36*
X67535800Y-171865800D02*
G01*
X65434200Y-171865800D01*
X65434200Y-169764200D01*
X67535800Y-169764200D01*
X67535800Y-171865800D01*
G37*
G36*
X61872338Y-169900738D02*
G01*
X62045373Y-169972412D01*
X62201100Y-170076465D01*
X62333535Y-170208900D01*
X62437588Y-170364627D01*
X62509262Y-170537662D01*
X62545800Y-170721354D01*
X62545800Y-170908646D01*
X62509262Y-171092338D01*
X62437588Y-171265373D01*
X62333535Y-171421100D01*
X62201100Y-171553535D01*
X62045373Y-171657588D01*
X61872338Y-171729262D01*
X61688646Y-171765800D01*
X61501354Y-171765800D01*
X61317662Y-171729262D01*
X61144627Y-171657588D01*
X60988900Y-171553535D01*
X60856465Y-171421100D01*
X60752412Y-171265373D01*
X60680738Y-171092338D01*
X60644200Y-170908646D01*
X60644200Y-170721354D01*
X60680738Y-170537662D01*
X60752412Y-170364627D01*
X60856465Y-170208900D01*
X60988900Y-170076465D01*
X61144627Y-169972412D01*
X61317662Y-169900738D01*
X61501354Y-169864200D01*
X61688646Y-169864200D01*
X61872338Y-169900738D01*
G37*
G36*
X176160800Y-171715800D02*
G01*
X174359200Y-171715800D01*
X174359200Y-169914200D01*
X176160800Y-169914200D01*
X176160800Y-171715800D01*
G37*
G36*
X139654449Y-168678650D02*
G01*
X139691914Y-168690015D01*
X139726438Y-168708469D01*
X139756698Y-168733302D01*
X139781531Y-168763562D01*
X139799985Y-168798086D01*
X139811350Y-168835551D01*
X139815800Y-168880738D01*
X139815800Y-169719262D01*
X139811350Y-169764449D01*
X139799985Y-169801914D01*
X139781531Y-169836438D01*
X139756698Y-169866698D01*
X139726438Y-169891531D01*
X139691914Y-169909985D01*
X139654449Y-169921350D01*
X139609262Y-169925800D01*
X138520738Y-169925800D01*
X138475551Y-169921350D01*
X138438086Y-169909985D01*
X138403562Y-169891531D01*
X138373302Y-169866698D01*
X138348469Y-169836438D01*
X138330015Y-169801914D01*
X138318650Y-169764449D01*
X138314200Y-169719262D01*
X138314200Y-168880738D01*
X138318650Y-168835551D01*
X138330015Y-168798086D01*
X138348469Y-168763562D01*
X138373302Y-168733302D01*
X138403562Y-168708469D01*
X138438086Y-168690015D01*
X138475551Y-168678650D01*
X138520738Y-168674200D01*
X139609262Y-168674200D01*
X139654449Y-168678650D01*
G37*
G36*
X137114449Y-168678650D02*
G01*
X137151914Y-168690015D01*
X137186438Y-168708469D01*
X137216698Y-168733302D01*
X137241531Y-168763562D01*
X137259985Y-168798086D01*
X137271350Y-168835551D01*
X137275800Y-168880738D01*
X137275800Y-169719262D01*
X137271350Y-169764449D01*
X137259985Y-169801914D01*
X137241531Y-169836438D01*
X137216698Y-169866698D01*
X137186438Y-169891531D01*
X137151914Y-169909985D01*
X137114449Y-169921350D01*
X137069262Y-169925800D01*
X135980738Y-169925800D01*
X135935551Y-169921350D01*
X135898086Y-169909985D01*
X135863562Y-169891531D01*
X135833302Y-169866698D01*
X135808469Y-169836438D01*
X135790015Y-169801914D01*
X135778650Y-169764449D01*
X135774200Y-169719262D01*
X135774200Y-168880738D01*
X135778650Y-168835551D01*
X135790015Y-168798086D01*
X135808469Y-168763562D01*
X135833302Y-168733302D01*
X135863562Y-168708469D01*
X135898086Y-168690015D01*
X135935551Y-168678650D01*
X135980738Y-168674200D01*
X137069262Y-168674200D01*
X137114449Y-168678650D01*
G37*
G36*
X89800800Y-169810800D02*
G01*
X87999200Y-169810800D01*
X87999200Y-168009200D01*
X89800800Y-168009200D01*
X89800800Y-169810800D01*
G37*
G36*
X102500800Y-169810800D02*
G01*
X100699200Y-169810800D01*
X100699200Y-168009200D01*
X102500800Y-168009200D01*
X102500800Y-169810800D01*
G37*
G36*
X96150800Y-169810800D02*
G01*
X94349200Y-169810800D01*
X94349200Y-168009200D01*
X96150800Y-168009200D01*
X96150800Y-169810800D01*
G37*
G36*
X175522754Y-167408817D02*
G01*
X175686689Y-167476721D01*
X175834227Y-167575303D01*
X175959697Y-167700773D01*
X176058279Y-167848311D01*
X176126183Y-168012246D01*
X176160800Y-168186279D01*
X176160800Y-168363721D01*
X176126183Y-168537754D01*
X176058279Y-168701689D01*
X175959697Y-168849227D01*
X175834227Y-168974697D01*
X175686689Y-169073279D01*
X175522754Y-169141183D01*
X175348721Y-169175800D01*
X175171279Y-169175800D01*
X174997246Y-169141183D01*
X174833311Y-169073279D01*
X174685773Y-168974697D01*
X174560303Y-168849227D01*
X174461721Y-168701689D01*
X174393817Y-168537754D01*
X174359200Y-168363721D01*
X174359200Y-168186279D01*
X174393817Y-168012246D01*
X174461721Y-167848311D01*
X174560303Y-167700773D01*
X174685773Y-167575303D01*
X174833311Y-167476721D01*
X174997246Y-167408817D01*
X175171279Y-167374200D01*
X175348721Y-167374200D01*
X175522754Y-167408817D01*
G37*
G36*
X137114449Y-166628650D02*
G01*
X137151914Y-166640015D01*
X137186438Y-166658469D01*
X137216698Y-166683302D01*
X137241531Y-166713562D01*
X137259985Y-166748086D01*
X137271350Y-166785551D01*
X137275800Y-166830738D01*
X137275800Y-167669262D01*
X137271350Y-167714449D01*
X137259985Y-167751914D01*
X137241531Y-167786438D01*
X137216698Y-167816698D01*
X137186438Y-167841531D01*
X137151914Y-167859985D01*
X137114449Y-167871350D01*
X137069262Y-167875800D01*
X135980738Y-167875800D01*
X135935551Y-167871350D01*
X135898086Y-167859985D01*
X135863562Y-167841531D01*
X135833302Y-167816698D01*
X135808469Y-167786438D01*
X135790015Y-167751914D01*
X135778650Y-167714449D01*
X135774200Y-167669262D01*
X135774200Y-166830738D01*
X135778650Y-166785551D01*
X135790015Y-166748086D01*
X135808469Y-166713562D01*
X135833302Y-166683302D01*
X135863562Y-166658469D01*
X135898086Y-166640015D01*
X135935551Y-166628650D01*
X135980738Y-166624200D01*
X137069262Y-166624200D01*
X137114449Y-166628650D01*
G37*
G36*
X139654449Y-166628650D02*
G01*
X139691914Y-166640015D01*
X139726438Y-166658469D01*
X139756698Y-166683302D01*
X139781531Y-166713562D01*
X139799985Y-166748086D01*
X139811350Y-166785551D01*
X139815800Y-166830738D01*
X139815800Y-167669262D01*
X139811350Y-167714449D01*
X139799985Y-167751914D01*
X139781531Y-167786438D01*
X139756698Y-167816698D01*
X139726438Y-167841531D01*
X139691914Y-167859985D01*
X139654449Y-167871350D01*
X139609262Y-167875800D01*
X138520738Y-167875800D01*
X138475551Y-167871350D01*
X138438086Y-167859985D01*
X138403562Y-167841531D01*
X138373302Y-167816698D01*
X138348469Y-167786438D01*
X138330015Y-167751914D01*
X138318650Y-167714449D01*
X138314200Y-167669262D01*
X138314200Y-166830738D01*
X138318650Y-166785551D01*
X138330015Y-166748086D01*
X138348469Y-166713562D01*
X138373302Y-166683302D01*
X138403562Y-166658469D01*
X138438086Y-166640015D01*
X138475551Y-166628650D01*
X138520738Y-166624200D01*
X139609262Y-166624200D01*
X139654449Y-166628650D01*
G37*
G36*
X175522754Y-164868817D02*
G01*
X175686689Y-164936721D01*
X175834227Y-165035303D01*
X175959697Y-165160773D01*
X176058279Y-165308311D01*
X176126183Y-165472246D01*
X176160800Y-165646279D01*
X176160800Y-165823721D01*
X176126183Y-165997754D01*
X176058279Y-166161689D01*
X175959697Y-166309227D01*
X175834227Y-166434697D01*
X175686689Y-166533279D01*
X175522754Y-166601183D01*
X175348721Y-166635800D01*
X175171279Y-166635800D01*
X174997246Y-166601183D01*
X174833311Y-166533279D01*
X174685773Y-166434697D01*
X174560303Y-166309227D01*
X174461721Y-166161689D01*
X174393817Y-165997754D01*
X174359200Y-165823721D01*
X174359200Y-165646279D01*
X174393817Y-165472246D01*
X174461721Y-165308311D01*
X174560303Y-165160773D01*
X174685773Y-165035303D01*
X174833311Y-164936721D01*
X174997246Y-164868817D01*
X175171279Y-164834200D01*
X175348721Y-164834200D01*
X175522754Y-164868817D01*
G37*
G36*
X106310800Y-166635800D02*
G01*
X104509200Y-166635800D01*
X104509200Y-164834200D01*
X106310800Y-164834200D01*
X106310800Y-166635800D01*
G37*
G36*
X85990800Y-166635800D02*
G01*
X84189200Y-166635800D01*
X84189200Y-164834200D01*
X85990800Y-164834200D01*
X85990800Y-166635800D01*
G37*
G36*
X51252352Y-161328796D02*
G01*
X51534579Y-161445699D01*
X51788578Y-161615415D01*
X52004585Y-161831422D01*
X52174301Y-162085421D01*
X52291204Y-162367648D01*
X52350800Y-162667259D01*
X52350800Y-162972741D01*
X52291204Y-163272352D01*
X52174301Y-163554579D01*
X52004585Y-163808578D01*
X51788578Y-164024585D01*
X51534579Y-164194301D01*
X51252352Y-164311204D01*
X50952741Y-164370800D01*
X50647259Y-164370800D01*
X50347648Y-164311204D01*
X50065421Y-164194301D01*
X49811422Y-164024585D01*
X49595415Y-163808578D01*
X49425699Y-163554579D01*
X49308796Y-163272352D01*
X49249200Y-162972741D01*
X49249200Y-162667259D01*
X49308796Y-162367648D01*
X49425699Y-162085421D01*
X49595415Y-161831422D01*
X49811422Y-161615415D01*
X50065421Y-161445699D01*
X50347648Y-161328796D01*
X50647259Y-161269200D01*
X50952741Y-161269200D01*
X51252352Y-161328796D01*
G37*
G36*
X112660800Y-163460800D02*
G01*
X110859200Y-163460800D01*
X110859200Y-161659200D01*
X112660800Y-161659200D01*
X112660800Y-163460800D01*
G37*
G36*
X79640800Y-163460800D02*
G01*
X77839200Y-163460800D01*
X77839200Y-161659200D01*
X79640800Y-161659200D01*
X79640800Y-163460800D01*
G37*
G36*
X132342754Y-160423817D02*
G01*
X132506689Y-160491721D01*
X132654227Y-160590303D01*
X132779697Y-160715773D01*
X132878279Y-160863311D01*
X132946183Y-161027246D01*
X132980800Y-161201279D01*
X132980800Y-161378721D01*
X132946183Y-161552754D01*
X132878279Y-161716689D01*
X132779697Y-161864227D01*
X132654227Y-161989697D01*
X132506689Y-162088279D01*
X132342754Y-162156183D01*
X132168721Y-162190800D01*
X131991279Y-162190800D01*
X131817246Y-162156183D01*
X131653311Y-162088279D01*
X131505773Y-161989697D01*
X131380303Y-161864227D01*
X131281721Y-161716689D01*
X131213817Y-161552754D01*
X131179200Y-161378721D01*
X131179200Y-161201279D01*
X131213817Y-161027246D01*
X131281721Y-160863311D01*
X131380303Y-160715773D01*
X131505773Y-160590303D01*
X131653311Y-160491721D01*
X131817246Y-160423817D01*
X131991279Y-160389200D01*
X132168721Y-160389200D01*
X132342754Y-160423817D01*
G37*
G36*
X135520800Y-162190800D02*
G01*
X133719200Y-162190800D01*
X133719200Y-160389200D01*
X135520800Y-160389200D01*
X135520800Y-162190800D01*
G37*
G36*
X79640800Y-160920800D02*
G01*
X77839200Y-160920800D01*
X77839200Y-159119200D01*
X79640800Y-159119200D01*
X79640800Y-160920800D01*
G37*
G36*
X112660800Y-160920800D02*
G01*
X110859200Y-160920800D01*
X110859200Y-159119200D01*
X112660800Y-159119200D01*
X112660800Y-160920800D01*
G37*
G36*
X79640800Y-158380800D02*
G01*
X77839200Y-158380800D01*
X77839200Y-156579200D01*
X79640800Y-156579200D01*
X79640800Y-158380800D01*
G37*
G36*
X112660800Y-158380800D02*
G01*
X110859200Y-158380800D01*
X110859200Y-156579200D01*
X112660800Y-156579200D01*
X112660800Y-158380800D01*
G37*
G36*
X142505800Y-156475800D02*
G01*
X140704200Y-156475800D01*
X140704200Y-154674200D01*
X142505800Y-154674200D01*
X142505800Y-156475800D01*
G37*
G36*
X145045800Y-156475800D02*
G01*
X143244200Y-156475800D01*
X143244200Y-154674200D01*
X145045800Y-154674200D01*
X145045800Y-156475800D01*
G37*
G36*
X79640800Y-155840800D02*
G01*
X77839200Y-155840800D01*
X77839200Y-154039200D01*
X79640800Y-154039200D01*
X79640800Y-155840800D01*
G37*
G36*
X112660800Y-155840800D02*
G01*
X110859200Y-155840800D01*
X110859200Y-154039200D01*
X112660800Y-154039200D01*
X112660800Y-155840800D01*
G37*
G36*
X112660800Y-153300800D02*
G01*
X110859200Y-153300800D01*
X110859200Y-151499200D01*
X112660800Y-151499200D01*
X112660800Y-153300800D01*
G37*
G36*
X79640800Y-153300800D02*
G01*
X77839200Y-153300800D01*
X77839200Y-151499200D01*
X79640800Y-151499200D01*
X79640800Y-153300800D01*
G37*
G36*
X132980800Y-152030800D02*
G01*
X131179200Y-152030800D01*
X131179200Y-150229200D01*
X132980800Y-150229200D01*
X132980800Y-152030800D01*
G37*
G36*
X134882754Y-150263817D02*
G01*
X135046689Y-150331721D01*
X135194227Y-150430303D01*
X135319697Y-150555773D01*
X135418279Y-150703311D01*
X135486183Y-150867246D01*
X135520800Y-151041279D01*
X135520800Y-151218721D01*
X135486183Y-151392754D01*
X135418279Y-151556689D01*
X135319697Y-151704227D01*
X135194227Y-151829697D01*
X135046689Y-151928279D01*
X134882754Y-151996183D01*
X134708721Y-152030800D01*
X134531279Y-152030800D01*
X134357246Y-151996183D01*
X134193311Y-151928279D01*
X134045773Y-151829697D01*
X133920303Y-151704227D01*
X133821721Y-151556689D01*
X133753817Y-151392754D01*
X133719200Y-151218721D01*
X133719200Y-151041279D01*
X133753817Y-150867246D01*
X133821721Y-150703311D01*
X133920303Y-150555773D01*
X134045773Y-150430303D01*
X134193311Y-150331721D01*
X134357246Y-150263817D01*
X134531279Y-150229200D01*
X134708721Y-150229200D01*
X134882754Y-150263817D01*
G37*
G36*
X79640800Y-150760800D02*
G01*
X77839200Y-150760800D01*
X77839200Y-148959200D01*
X79640800Y-148959200D01*
X79640800Y-150760800D01*
G37*
G36*
X112660800Y-150760800D02*
G01*
X110859200Y-150760800D01*
X110859200Y-148959200D01*
X112660800Y-148959200D01*
X112660800Y-150760800D01*
G37*
G36*
X79640800Y-148220800D02*
G01*
X77839200Y-148220800D01*
X77839200Y-146419200D01*
X79640800Y-146419200D01*
X79640800Y-148220800D01*
G37*
G36*
X112660800Y-148220800D02*
G01*
X110859200Y-148220800D01*
X110859200Y-146419200D01*
X112660800Y-146419200D01*
X112660800Y-148220800D01*
G37*
G36*
X163460800Y-146315800D02*
G01*
X161659200Y-146315800D01*
X161659200Y-144514200D01*
X163460800Y-144514200D01*
X163460800Y-146315800D01*
G37*
G36*
X168235800Y-145930800D02*
G01*
X165934200Y-145930800D01*
X165934200Y-143629200D01*
X168235800Y-143629200D01*
X168235800Y-145930800D01*
G37*
G36*
X96150800Y-145680800D02*
G01*
X94349200Y-145680800D01*
X94349200Y-143879200D01*
X96150800Y-143879200D01*
X96150800Y-145680800D01*
G37*
G36*
X172311310Y-140151312D02*
G01*
X172422477Y-140173425D01*
X172631908Y-140260174D01*
X172820393Y-140386115D01*
X172980685Y-140546407D01*
X173106626Y-140734892D01*
X173193375Y-140944323D01*
X173237600Y-141166657D01*
X173237600Y-141393343D01*
X173193375Y-141615677D01*
X173106626Y-141825108D01*
X172980685Y-142013593D01*
X172820393Y-142173885D01*
X172631908Y-142299826D01*
X172422477Y-142386575D01*
X172311310Y-142408687D01*
X172200144Y-142430800D01*
X171973456Y-142430800D01*
X171862290Y-142408687D01*
X171751123Y-142386575D01*
X171541692Y-142299826D01*
X171353207Y-142173885D01*
X171192915Y-142013593D01*
X171066974Y-141825108D01*
X170980225Y-141615677D01*
X170936000Y-141393343D01*
X170936000Y-141166657D01*
X170980225Y-140944323D01*
X171066974Y-140734892D01*
X171192915Y-140546407D01*
X171353207Y-140386115D01*
X171541692Y-140260174D01*
X171751123Y-140173425D01*
X171862290Y-140151312D01*
X171973456Y-140129200D01*
X172200144Y-140129200D01*
X172311310Y-140151312D01*
G37*
G36*
X108212754Y-138198817D02*
G01*
X108376689Y-138266721D01*
X108524227Y-138365303D01*
X108649697Y-138490773D01*
X108748279Y-138638311D01*
X108816183Y-138802246D01*
X108850800Y-138976279D01*
X108850800Y-139153721D01*
X108816183Y-139327754D01*
X108748279Y-139491689D01*
X108649697Y-139639227D01*
X108524227Y-139764697D01*
X108376689Y-139863279D01*
X108212754Y-139931183D01*
X108038721Y-139965800D01*
X107861279Y-139965800D01*
X107687246Y-139931183D01*
X107523311Y-139863279D01*
X107375773Y-139764697D01*
X107250303Y-139639227D01*
X107151721Y-139491689D01*
X107083817Y-139327754D01*
X107049200Y-139153721D01*
X107049200Y-138976279D01*
X107083817Y-138802246D01*
X107151721Y-138638311D01*
X107250303Y-138490773D01*
X107375773Y-138365303D01*
X107523311Y-138266721D01*
X107687246Y-138198817D01*
X107861279Y-138164200D01*
X108038721Y-138164200D01*
X108212754Y-138198817D01*
G37*
G36*
X163460800Y-139965800D02*
G01*
X161659200Y-139965800D01*
X161659200Y-138164200D01*
X163460800Y-138164200D01*
X163460800Y-139965800D01*
G37*
G36*
X167309510Y-136651312D02*
G01*
X167420677Y-136673425D01*
X167630108Y-136760174D01*
X167818593Y-136886115D01*
X167978885Y-137046407D01*
X168104826Y-137234892D01*
X168191575Y-137444323D01*
X168235800Y-137666657D01*
X168235800Y-137893343D01*
X168191575Y-138115677D01*
X168104826Y-138325108D01*
X167978885Y-138513593D01*
X167818593Y-138673885D01*
X167630108Y-138799826D01*
X167420677Y-138886575D01*
X167309510Y-138908688D01*
X167198344Y-138930800D01*
X166971656Y-138930800D01*
X166860490Y-138908688D01*
X166749323Y-138886575D01*
X166539892Y-138799826D01*
X166351407Y-138673885D01*
X166191115Y-138513593D01*
X166065174Y-138325108D01*
X165978425Y-138115677D01*
X165934200Y-137893343D01*
X165934200Y-137666657D01*
X165978425Y-137444323D01*
X166065174Y-137234892D01*
X166191115Y-137046407D01*
X166351407Y-136886115D01*
X166539892Y-136760174D01*
X166749323Y-136673425D01*
X166860490Y-136651312D01*
X166971656Y-136629200D01*
X167198344Y-136629200D01*
X167309510Y-136651312D01*
G37*
G36*
X120280800Y-137425800D02*
G01*
X118479200Y-137425800D01*
X118479200Y-135624200D01*
X120280800Y-135624200D01*
X120280800Y-137425800D01*
G37*
G36*
X108850800Y-137425800D02*
G01*
X107049200Y-137425800D01*
X107049200Y-135624200D01*
X108850800Y-135624200D01*
X108850800Y-137425800D01*
G37*
G36*
X122182754Y-135658817D02*
G01*
X122346689Y-135726721D01*
X122494227Y-135825303D01*
X122619697Y-135950773D01*
X122718279Y-136098311D01*
X122786183Y-136262246D01*
X122820800Y-136436279D01*
X122820800Y-136613721D01*
X122786183Y-136787754D01*
X122718279Y-136951689D01*
X122619697Y-137099227D01*
X122494227Y-137224697D01*
X122346689Y-137323279D01*
X122182754Y-137391183D01*
X122008721Y-137425800D01*
X121831279Y-137425800D01*
X121657246Y-137391183D01*
X121493311Y-137323279D01*
X121345773Y-137224697D01*
X121220303Y-137099227D01*
X121121721Y-136951689D01*
X121053817Y-136787754D01*
X121019200Y-136613721D01*
X121019200Y-136436279D01*
X121053817Y-136262246D01*
X121121721Y-136098311D01*
X121220303Y-135950773D01*
X121345773Y-135825303D01*
X121493311Y-135726721D01*
X121657246Y-135658817D01*
X121831279Y-135624200D01*
X122008721Y-135624200D01*
X122182754Y-135658817D01*
G37*
G36*
X163460800Y-134250800D02*
G01*
X161659200Y-134250800D01*
X161659200Y-132449200D01*
X163460800Y-132449200D01*
X163460800Y-134250800D01*
G37*
G36*
X49666587Y-131677233D02*
G01*
X49836387Y-131728742D01*
X49992881Y-131812389D01*
X50130044Y-131924956D01*
X50242611Y-132062119D01*
X50326258Y-132218612D01*
X50377767Y-132388412D01*
X50390800Y-132520741D01*
X50390800Y-132909258D01*
X50377767Y-133041587D01*
X50326258Y-133211387D01*
X50242611Y-133367881D01*
X50130044Y-133505044D01*
X49992881Y-133617611D01*
X49836388Y-133701258D01*
X49666588Y-133752767D01*
X49490000Y-133770159D01*
X49313413Y-133752767D01*
X49143613Y-133701258D01*
X48987120Y-133617611D01*
X48849959Y-133505046D01*
X48737387Y-133367878D01*
X48653742Y-133211388D01*
X48602233Y-133041588D01*
X48589200Y-132909259D01*
X48589200Y-132520742D01*
X48602233Y-132388413D01*
X48653742Y-132218613D01*
X48737389Y-132062119D01*
X48849956Y-131924956D01*
X48987119Y-131812389D01*
X49143612Y-131728742D01*
X49313412Y-131677233D01*
X49490000Y-131659841D01*
X49666587Y-131677233D01*
G37*
G36*
X64271587Y-131677233D02*
G01*
X64441387Y-131728742D01*
X64597881Y-131812389D01*
X64735044Y-131924956D01*
X64847611Y-132062119D01*
X64931258Y-132218612D01*
X64982767Y-132388412D01*
X64995800Y-132520741D01*
X64995800Y-132909258D01*
X64982767Y-133041587D01*
X64931258Y-133211387D01*
X64847611Y-133367881D01*
X64735044Y-133505044D01*
X64597881Y-133617611D01*
X64441388Y-133701258D01*
X64271588Y-133752767D01*
X64095000Y-133770159D01*
X63918413Y-133752767D01*
X63748613Y-133701258D01*
X63592120Y-133617611D01*
X63454959Y-133505046D01*
X63342387Y-133367878D01*
X63258742Y-133211388D01*
X63207233Y-133041588D01*
X63194200Y-132909259D01*
X63194200Y-132520742D01*
X63207233Y-132388413D01*
X63258742Y-132218613D01*
X63342389Y-132062119D01*
X63454956Y-131924956D01*
X63592119Y-131812389D01*
X63748612Y-131728742D01*
X63918412Y-131677233D01*
X64095000Y-131659841D01*
X64271587Y-131677233D01*
G37*
G36*
X47749586Y-131668171D02*
G01*
X47782352Y-131678111D01*
X47812552Y-131694253D01*
X47839023Y-131715977D01*
X47860747Y-131742448D01*
X47876889Y-131772648D01*
X47886829Y-131805414D01*
X47890800Y-131845738D01*
X47890800Y-133584262D01*
X47886829Y-133624586D01*
X47876889Y-133657352D01*
X47860747Y-133687552D01*
X47839023Y-133714023D01*
X47812552Y-133735747D01*
X47782352Y-133751889D01*
X47749586Y-133761829D01*
X47709262Y-133765800D01*
X46270738Y-133765800D01*
X46230414Y-133761829D01*
X46197648Y-133751889D01*
X46167448Y-133735747D01*
X46140977Y-133714023D01*
X46119253Y-133687552D01*
X46103111Y-133657352D01*
X46093171Y-133624586D01*
X46089200Y-133584262D01*
X46089200Y-131845738D01*
X46093171Y-131805414D01*
X46103111Y-131772648D01*
X46119253Y-131742448D01*
X46140977Y-131715977D01*
X46167448Y-131694253D01*
X46197648Y-131678111D01*
X46230414Y-131668171D01*
X46270738Y-131664200D01*
X47709262Y-131664200D01*
X47749586Y-131668171D01*
G37*
G36*
X62354586Y-131668171D02*
G01*
X62387352Y-131678111D01*
X62417552Y-131694253D01*
X62444023Y-131715977D01*
X62465747Y-131742448D01*
X62481889Y-131772648D01*
X62491829Y-131805414D01*
X62495800Y-131845738D01*
X62495800Y-133584262D01*
X62491829Y-133624586D01*
X62481889Y-133657352D01*
X62465747Y-133687552D01*
X62444023Y-133714023D01*
X62417552Y-133735747D01*
X62387352Y-133751889D01*
X62354586Y-133761829D01*
X62314262Y-133765800D01*
X60875738Y-133765800D01*
X60835414Y-133761829D01*
X60802648Y-133751889D01*
X60772448Y-133735747D01*
X60745977Y-133714023D01*
X60724253Y-133687552D01*
X60708111Y-133657352D01*
X60698171Y-133624586D01*
X60694200Y-133584262D01*
X60694200Y-131845738D01*
X60698171Y-131805414D01*
X60708111Y-131772648D01*
X60724253Y-131742448D01*
X60745977Y-131715977D01*
X60772448Y-131694253D01*
X60802648Y-131678111D01*
X60835414Y-131668171D01*
X60875738Y-131664200D01*
X62314262Y-131664200D01*
X62354586Y-131668171D01*
G37*
G36*
X168264000Y-133570400D02*
G01*
X165962400Y-133570400D01*
X165962400Y-131268800D01*
X168264000Y-131268800D01*
X168264000Y-133570400D01*
G37*
G36*
X119642754Y-128673817D02*
G01*
X119806689Y-128741721D01*
X119954227Y-128840303D01*
X120079697Y-128965773D01*
X120178279Y-129113311D01*
X120246183Y-129277246D01*
X120280800Y-129451279D01*
X120280800Y-129628721D01*
X120246183Y-129802754D01*
X120178279Y-129966689D01*
X120079697Y-130114227D01*
X119954227Y-130239697D01*
X119806689Y-130338279D01*
X119642754Y-130406183D01*
X119468721Y-130440800D01*
X119291279Y-130440800D01*
X119117246Y-130406183D01*
X118953311Y-130338279D01*
X118805773Y-130239697D01*
X118680303Y-130114227D01*
X118581721Y-129966689D01*
X118513817Y-129802754D01*
X118479200Y-129628721D01*
X118479200Y-129451279D01*
X118513817Y-129277246D01*
X118581721Y-129113311D01*
X118680303Y-128965773D01*
X118805773Y-128840303D01*
X118953311Y-128741721D01*
X119117246Y-128673817D01*
X119291279Y-128639200D01*
X119468721Y-128639200D01*
X119642754Y-128673817D01*
G37*
G36*
X122820800Y-130440800D02*
G01*
X121019200Y-130440800D01*
X121019200Y-128639200D01*
X122820800Y-128639200D01*
X122820800Y-130440800D01*
G37*
G36*
X144407754Y-128673817D02*
G01*
X144571689Y-128741721D01*
X144719227Y-128840303D01*
X144844697Y-128965773D01*
X144943279Y-129113311D01*
X145011183Y-129277246D01*
X145045800Y-129451279D01*
X145045800Y-129628721D01*
X145011183Y-129802754D01*
X144943279Y-129966689D01*
X144844697Y-130114227D01*
X144719227Y-130239697D01*
X144571689Y-130338279D01*
X144407754Y-130406183D01*
X144233721Y-130440800D01*
X144056279Y-130440800D01*
X143882246Y-130406183D01*
X143718311Y-130338279D01*
X143570773Y-130239697D01*
X143445303Y-130114227D01*
X143346721Y-129966689D01*
X143278817Y-129802754D01*
X143244200Y-129628721D01*
X143244200Y-129451279D01*
X143278817Y-129277246D01*
X143346721Y-129113311D01*
X143445303Y-128965773D01*
X143570773Y-128840303D01*
X143718311Y-128741721D01*
X143882246Y-128673817D01*
X144056279Y-128639200D01*
X144233721Y-128639200D01*
X144407754Y-128673817D01*
G37*
G36*
X147585800Y-130440800D02*
G01*
X145784200Y-130440800D01*
X145784200Y-128639200D01*
X147585800Y-128639200D01*
X147585800Y-130440800D01*
G37*
G36*
X98690800Y-130440800D02*
G01*
X96889200Y-130440800D01*
X96889200Y-128639200D01*
X98690800Y-128639200D01*
X98690800Y-130440800D01*
G37*
G36*
X95512754Y-128673817D02*
G01*
X95676689Y-128741721D01*
X95824227Y-128840303D01*
X95949697Y-128965773D01*
X96048279Y-129113311D01*
X96116183Y-129277246D01*
X96150800Y-129451279D01*
X96150800Y-129628721D01*
X96116183Y-129802754D01*
X96048279Y-129966689D01*
X95949697Y-130114227D01*
X95824227Y-130239697D01*
X95676689Y-130338279D01*
X95512754Y-130406183D01*
X95338721Y-130440800D01*
X95161279Y-130440800D01*
X94987246Y-130406183D01*
X94823311Y-130338279D01*
X94675773Y-130239697D01*
X94550303Y-130114227D01*
X94451721Y-129966689D01*
X94383817Y-129802754D01*
X94349200Y-129628721D01*
X94349200Y-129451279D01*
X94383817Y-129277246D01*
X94451721Y-129113311D01*
X94550303Y-128965773D01*
X94675773Y-128840303D01*
X94823311Y-128741721D01*
X94987246Y-128673817D01*
X95161279Y-128639200D01*
X95338721Y-128639200D01*
X95512754Y-128673817D01*
G37*
G36*
X172339510Y-127790912D02*
G01*
X172450677Y-127813025D01*
X172660108Y-127899774D01*
X172848593Y-128025715D01*
X173008885Y-128186007D01*
X173134826Y-128374492D01*
X173221575Y-128583923D01*
X173265800Y-128806257D01*
X173265800Y-129032943D01*
X173221575Y-129255277D01*
X173134826Y-129464708D01*
X173008885Y-129653193D01*
X172848593Y-129813485D01*
X172660108Y-129939426D01*
X172450677Y-130026175D01*
X172339510Y-130048288D01*
X172228344Y-130070400D01*
X172001656Y-130070400D01*
X171890490Y-130048288D01*
X171779323Y-130026175D01*
X171569892Y-129939426D01*
X171381407Y-129813485D01*
X171221115Y-129653193D01*
X171095174Y-129464708D01*
X171008425Y-129255277D01*
X170964200Y-129032943D01*
X170964200Y-128806257D01*
X171008425Y-128583923D01*
X171095174Y-128374492D01*
X171221115Y-128186007D01*
X171381407Y-128025715D01*
X171569892Y-127899774D01*
X171779323Y-127813025D01*
X171890490Y-127790912D01*
X172001656Y-127768800D01*
X172228344Y-127768800D01*
X172339510Y-127790912D01*
G37*
G36*
X163460800Y-127900800D02*
G01*
X161659200Y-127900800D01*
X161659200Y-126099200D01*
X163460800Y-126099200D01*
X163460800Y-127900800D01*
G37*
G36*
X47212710Y-124941313D02*
G01*
X47323877Y-124963425D01*
X47533308Y-125050174D01*
X47721793Y-125176115D01*
X47882085Y-125336407D01*
X48008026Y-125524892D01*
X48094775Y-125734323D01*
X48139000Y-125956657D01*
X48139000Y-126183343D01*
X48094775Y-126405677D01*
X48008026Y-126615108D01*
X47882085Y-126803593D01*
X47721793Y-126963885D01*
X47533308Y-127089826D01*
X47323877Y-127176575D01*
X47212710Y-127198688D01*
X47101544Y-127220800D01*
X46874856Y-127220800D01*
X46763690Y-127198688D01*
X46652523Y-127176575D01*
X46443092Y-127089826D01*
X46254607Y-126963885D01*
X46094315Y-126803593D01*
X45968374Y-126615108D01*
X45881625Y-126405677D01*
X45837400Y-126183343D01*
X45837400Y-125956657D01*
X45881625Y-125734323D01*
X45968374Y-125524892D01*
X46094315Y-125336407D01*
X46254607Y-125176115D01*
X46443092Y-125050174D01*
X46652523Y-124963425D01*
X46763690Y-124941313D01*
X46874856Y-124919200D01*
X47101544Y-124919200D01*
X47212710Y-124941313D01*
G37*
G36*
X167337710Y-124290913D02*
G01*
X167448877Y-124313025D01*
X167658308Y-124399774D01*
X167846793Y-124525715D01*
X168007085Y-124686007D01*
X168133026Y-124874492D01*
X168219775Y-125083923D01*
X168264000Y-125306257D01*
X168264000Y-125532943D01*
X168219775Y-125755277D01*
X168133026Y-125964708D01*
X168007085Y-126153193D01*
X167846793Y-126313485D01*
X167658308Y-126439426D01*
X167448877Y-126526175D01*
X167337710Y-126548288D01*
X167226544Y-126570400D01*
X166999856Y-126570400D01*
X166888690Y-126548288D01*
X166777523Y-126526175D01*
X166568092Y-126439426D01*
X166379607Y-126313485D01*
X166219315Y-126153193D01*
X166093374Y-125964708D01*
X166006625Y-125755277D01*
X165962400Y-125532943D01*
X165962400Y-125306257D01*
X166006625Y-125083923D01*
X166093374Y-124874492D01*
X166219315Y-124686007D01*
X166379607Y-124525715D01*
X166568092Y-124399774D01*
X166777523Y-124313025D01*
X166888690Y-124290913D01*
X166999856Y-124268800D01*
X167226544Y-124268800D01*
X167337710Y-124290913D01*
G37*
G36*
X128535800Y-125995800D02*
G01*
X126734200Y-125995800D01*
X126734200Y-124194200D01*
X128535800Y-124194200D01*
X128535800Y-125995800D01*
G37*
G36*
X52214510Y-121441312D02*
G01*
X52325677Y-121463425D01*
X52535108Y-121550174D01*
X52723593Y-121676115D01*
X52883885Y-121836407D01*
X53009826Y-122024892D01*
X53096575Y-122234323D01*
X53140800Y-122456657D01*
X53140800Y-122683343D01*
X53096575Y-122905677D01*
X53009826Y-123115108D01*
X52883885Y-123303593D01*
X52723593Y-123463885D01*
X52535108Y-123589826D01*
X52325677Y-123676575D01*
X52214510Y-123698688D01*
X52103344Y-123720800D01*
X51876656Y-123720800D01*
X51765490Y-123698688D01*
X51654323Y-123676575D01*
X51444892Y-123589826D01*
X51256407Y-123463885D01*
X51096115Y-123303593D01*
X50970174Y-123115108D01*
X50883425Y-122905677D01*
X50839200Y-122683343D01*
X50839200Y-122456657D01*
X50883425Y-122234323D01*
X50970174Y-122024892D01*
X51096115Y-121836407D01*
X51256407Y-121676115D01*
X51444892Y-121550174D01*
X51654323Y-121463425D01*
X51765490Y-121441312D01*
X51876656Y-121419200D01*
X52103344Y-121419200D01*
X52214510Y-121441312D01*
G37*
G36*
X127897754Y-121688817D02*
G01*
X128061689Y-121756721D01*
X128209227Y-121855303D01*
X128334697Y-121980773D01*
X128433279Y-122128311D01*
X128501183Y-122292246D01*
X128535800Y-122466279D01*
X128535800Y-122643721D01*
X128501183Y-122817754D01*
X128433279Y-122981689D01*
X128334697Y-123129227D01*
X128209227Y-123254697D01*
X128061689Y-123353279D01*
X127897754Y-123421183D01*
X127723721Y-123455800D01*
X127546279Y-123455800D01*
X127372246Y-123421183D01*
X127208311Y-123353279D01*
X127060773Y-123254697D01*
X126935303Y-123129227D01*
X126836721Y-122981689D01*
X126768817Y-122817754D01*
X126734200Y-122643721D01*
X126734200Y-122466279D01*
X126768817Y-122292246D01*
X126836721Y-122128311D01*
X126935303Y-121980773D01*
X127060773Y-121855303D01*
X127208311Y-121756721D01*
X127372246Y-121688817D01*
X127546279Y-121654200D01*
X127723721Y-121654200D01*
X127897754Y-121688817D01*
G37*
G36*
X168235800Y-121165800D02*
G01*
X165934200Y-121165800D01*
X165934200Y-118864200D01*
X168235800Y-118864200D01*
X168235800Y-121165800D01*
G37*
G36*
X158380800Y-120915800D02*
G01*
X156579200Y-120915800D01*
X156579200Y-119114200D01*
X158380800Y-119114200D01*
X158380800Y-120915800D01*
G37*
G36*
X145045800Y-120915800D02*
G01*
X143244200Y-120915800D01*
X143244200Y-119114200D01*
X145045800Y-119114200D01*
X145045800Y-120915800D01*
G37*
G36*
X47212710Y-117941312D02*
G01*
X47323877Y-117963425D01*
X47533308Y-118050174D01*
X47721793Y-118176115D01*
X47882085Y-118336407D01*
X48008026Y-118524892D01*
X48094775Y-118734323D01*
X48139000Y-118956657D01*
X48139000Y-119183343D01*
X48094775Y-119405677D01*
X48008026Y-119615108D01*
X47882085Y-119803593D01*
X47721793Y-119963885D01*
X47533308Y-120089826D01*
X47323877Y-120176575D01*
X47212710Y-120198687D01*
X47101544Y-120220800D01*
X46874856Y-120220800D01*
X46763690Y-120198687D01*
X46652523Y-120176575D01*
X46443092Y-120089826D01*
X46254607Y-119963885D01*
X46094315Y-119803593D01*
X45968374Y-119615108D01*
X45881625Y-119405677D01*
X45837400Y-119183343D01*
X45837400Y-118956657D01*
X45881625Y-118734323D01*
X45968374Y-118524892D01*
X46094315Y-118336407D01*
X46254607Y-118176115D01*
X46443092Y-118050174D01*
X46652523Y-117963425D01*
X46763690Y-117941312D01*
X46874856Y-117919200D01*
X47101544Y-117919200D01*
X47212710Y-117941312D01*
G37*
G36*
X157742754Y-116608817D02*
G01*
X157906689Y-116676721D01*
X158054227Y-116775303D01*
X158179697Y-116900773D01*
X158278279Y-117048311D01*
X158346183Y-117212246D01*
X158380800Y-117386279D01*
X158380800Y-117563721D01*
X158346183Y-117737754D01*
X158278279Y-117901689D01*
X158179697Y-118049227D01*
X158054227Y-118174697D01*
X157906689Y-118273279D01*
X157742754Y-118341183D01*
X157568721Y-118375800D01*
X157391279Y-118375800D01*
X157217246Y-118341183D01*
X157053311Y-118273279D01*
X156905773Y-118174697D01*
X156780303Y-118049227D01*
X156681721Y-117901689D01*
X156613817Y-117737754D01*
X156579200Y-117563721D01*
X156579200Y-117386279D01*
X156613817Y-117212246D01*
X156681721Y-117048311D01*
X156780303Y-116900773D01*
X156905773Y-116775303D01*
X157053311Y-116676721D01*
X157217246Y-116608817D01*
X157391279Y-116574200D01*
X157568721Y-116574200D01*
X157742754Y-116608817D01*
G37*
G36*
X172311310Y-115386312D02*
G01*
X172422477Y-115408425D01*
X172631908Y-115495174D01*
X172820393Y-115621115D01*
X172980685Y-115781407D01*
X173106626Y-115969892D01*
X173193375Y-116179323D01*
X173237600Y-116401657D01*
X173237600Y-116628343D01*
X173193375Y-116850677D01*
X173106626Y-117060108D01*
X172980685Y-117248593D01*
X172820393Y-117408885D01*
X172631908Y-117534826D01*
X172422477Y-117621575D01*
X172311310Y-117643688D01*
X172200144Y-117665800D01*
X171973456Y-117665800D01*
X171862290Y-117643688D01*
X171751123Y-117621575D01*
X171541692Y-117534826D01*
X171353207Y-117408885D01*
X171192915Y-117248593D01*
X171066974Y-117060108D01*
X170980225Y-116850677D01*
X170936000Y-116628343D01*
X170936000Y-116401657D01*
X170980225Y-116179323D01*
X171066974Y-115969892D01*
X171192915Y-115781407D01*
X171353207Y-115621115D01*
X171541692Y-115495174D01*
X171751123Y-115408425D01*
X171862290Y-115386312D01*
X171973456Y-115364200D01*
X172200144Y-115364200D01*
X172311310Y-115386312D01*
G37*
G36*
X53140800Y-116720800D02*
G01*
X50839200Y-116720800D01*
X50839200Y-114419200D01*
X53140800Y-114419200D01*
X53140800Y-116720800D01*
G37*
G36*
X168235800Y-112275800D02*
G01*
X165934200Y-112275800D01*
X165934200Y-109974200D01*
X168235800Y-109974200D01*
X168235800Y-112275800D01*
G37*
G36*
X145045800Y-112025800D02*
G01*
X143244200Y-112025800D01*
X143244200Y-110224200D01*
X145045800Y-110224200D01*
X145045800Y-112025800D01*
G37*
G36*
X158380800Y-112025800D02*
G01*
X156579200Y-112025800D01*
X156579200Y-110224200D01*
X158380800Y-110224200D01*
X158380800Y-112025800D01*
G37*
G36*
X47212710Y-109081312D02*
G01*
X47323877Y-109103425D01*
X47533308Y-109190174D01*
X47721793Y-109316115D01*
X47882085Y-109476407D01*
X48008026Y-109664892D01*
X48094775Y-109874323D01*
X48139000Y-110096657D01*
X48139000Y-110323343D01*
X48094775Y-110545677D01*
X48008026Y-110755108D01*
X47882085Y-110943593D01*
X47721793Y-111103885D01*
X47533308Y-111229826D01*
X47323877Y-111316575D01*
X47212710Y-111338688D01*
X47101544Y-111360800D01*
X46874856Y-111360800D01*
X46763690Y-111338688D01*
X46652523Y-111316575D01*
X46443092Y-111229826D01*
X46254607Y-111103885D01*
X46094315Y-110943593D01*
X45968374Y-110755108D01*
X45881625Y-110545677D01*
X45837400Y-110323343D01*
X45837400Y-110096657D01*
X45881625Y-109874323D01*
X45968374Y-109664892D01*
X46094315Y-109476407D01*
X46254607Y-109316115D01*
X46443092Y-109190174D01*
X46652523Y-109103425D01*
X46763690Y-109081312D01*
X46874856Y-109059200D01*
X47101544Y-109059200D01*
X47212710Y-109081312D01*
G37*
G36*
X157742754Y-107718817D02*
G01*
X157906689Y-107786721D01*
X158054227Y-107885303D01*
X158179697Y-108010773D01*
X158278279Y-108158311D01*
X158346183Y-108322246D01*
X158380800Y-108496279D01*
X158380800Y-108673721D01*
X158346183Y-108847754D01*
X158278279Y-109011689D01*
X158179697Y-109159227D01*
X158054227Y-109284697D01*
X157906689Y-109383279D01*
X157742754Y-109451183D01*
X157568721Y-109485800D01*
X157391279Y-109485800D01*
X157217246Y-109451183D01*
X157053311Y-109383279D01*
X156905773Y-109284697D01*
X156780303Y-109159227D01*
X156681721Y-109011689D01*
X156613817Y-108847754D01*
X156579200Y-108673721D01*
X156579200Y-108496279D01*
X156613817Y-108322246D01*
X156681721Y-108158311D01*
X156780303Y-108010773D01*
X156905773Y-107885303D01*
X157053311Y-107786721D01*
X157217246Y-107718817D01*
X157391279Y-107684200D01*
X157568721Y-107684200D01*
X157742754Y-107718817D01*
G37*
G36*
X76465800Y-108850800D02*
G01*
X74664200Y-108850800D01*
X74664200Y-107049200D01*
X76465800Y-107049200D01*
X76465800Y-108850800D01*
G37*
G36*
X69480800Y-108850800D02*
G01*
X67679200Y-108850800D01*
X67679200Y-107049200D01*
X69480800Y-107049200D01*
X69480800Y-108850800D01*
G37*
G36*
X82180800Y-108850800D02*
G01*
X80379200Y-108850800D01*
X80379200Y-107049200D01*
X82180800Y-107049200D01*
X82180800Y-108850800D01*
G37*
G36*
X172311310Y-106496312D02*
G01*
X172422477Y-106518425D01*
X172631908Y-106605174D01*
X172820393Y-106731115D01*
X172980685Y-106891407D01*
X173106626Y-107079892D01*
X173193375Y-107289323D01*
X173237600Y-107511657D01*
X173237600Y-107738343D01*
X173193375Y-107960677D01*
X173106626Y-108170108D01*
X172980685Y-108358593D01*
X172820393Y-108518885D01*
X172631908Y-108644826D01*
X172422477Y-108731575D01*
X172311310Y-108753687D01*
X172200144Y-108775800D01*
X171973456Y-108775800D01*
X171862290Y-108753687D01*
X171751123Y-108731575D01*
X171541692Y-108644826D01*
X171353207Y-108518885D01*
X171192915Y-108358593D01*
X171066974Y-108170108D01*
X170980225Y-107960677D01*
X170936000Y-107738343D01*
X170936000Y-107511657D01*
X170980225Y-107289323D01*
X171066974Y-107079892D01*
X171192915Y-106891407D01*
X171353207Y-106731115D01*
X171541692Y-106605174D01*
X171751123Y-106518425D01*
X171862290Y-106496313D01*
X171973456Y-106474200D01*
X172200144Y-106474200D01*
X172311310Y-106496312D01*
G37*
G36*
X52214510Y-105581312D02*
G01*
X52325677Y-105603425D01*
X52535108Y-105690174D01*
X52723593Y-105816115D01*
X52883885Y-105976407D01*
X53009826Y-106164892D01*
X53096575Y-106374323D01*
X53140800Y-106596657D01*
X53140800Y-106823343D01*
X53096575Y-107045677D01*
X53009826Y-107255108D01*
X52883885Y-107443593D01*
X52723593Y-107603885D01*
X52535108Y-107729826D01*
X52325677Y-107816575D01*
X52214510Y-107838688D01*
X52103344Y-107860800D01*
X51876656Y-107860800D01*
X51765490Y-107838688D01*
X51654323Y-107816575D01*
X51444892Y-107729826D01*
X51256407Y-107603885D01*
X51096115Y-107443593D01*
X50970174Y-107255108D01*
X50883425Y-107045677D01*
X50839200Y-106823343D01*
X50839200Y-106596657D01*
X50883425Y-106374323D01*
X50970174Y-106164892D01*
X51096115Y-105976407D01*
X51256407Y-105816115D01*
X51444892Y-105690174D01*
X51654323Y-105603425D01*
X51765490Y-105581313D01*
X51876656Y-105559200D01*
X52103344Y-105559200D01*
X52214510Y-105581312D01*
G37*
G36*
X116547954Y-105505896D02*
G01*
X116618293Y-105519887D01*
X116717675Y-105561052D01*
X116807119Y-105620817D01*
X116883183Y-105696881D01*
X116942948Y-105786325D01*
X116984113Y-105885707D01*
X116984113Y-105885709D01*
X117002155Y-105976407D01*
X117005100Y-105991215D01*
X117005100Y-106098785D01*
X116984113Y-106204293D01*
X116942948Y-106303675D01*
X116883183Y-106393119D01*
X116807119Y-106469183D01*
X116717675Y-106528948D01*
X116618293Y-106570113D01*
X116547954Y-106584104D01*
X116512786Y-106591100D01*
X116405214Y-106591100D01*
X116370046Y-106584104D01*
X116299707Y-106570113D01*
X116200325Y-106528948D01*
X116110881Y-106469183D01*
X116034817Y-106393119D01*
X115975052Y-106303675D01*
X115933887Y-106204293D01*
X115912900Y-106098785D01*
X115912900Y-105991215D01*
X115915846Y-105976407D01*
X115933887Y-105885709D01*
X115933887Y-105885707D01*
X115975052Y-105786325D01*
X116034817Y-105696881D01*
X116110881Y-105620817D01*
X116200325Y-105561052D01*
X116299707Y-105519887D01*
X116370046Y-105505896D01*
X116405214Y-105498900D01*
X116512786Y-105498900D01*
X116547954Y-105505896D01*
G37*
G36*
X118579954Y-105505896D02*
G01*
X118650293Y-105519887D01*
X118749675Y-105561052D01*
X118839119Y-105620817D01*
X118915183Y-105696881D01*
X118974948Y-105786325D01*
X119016113Y-105885707D01*
X119016113Y-105885709D01*
X119034155Y-105976407D01*
X119037100Y-105991215D01*
X119037100Y-106098785D01*
X119016113Y-106204293D01*
X118974948Y-106303675D01*
X118915183Y-106393119D01*
X118839119Y-106469183D01*
X118749675Y-106528948D01*
X118650293Y-106570113D01*
X118579954Y-106584104D01*
X118544786Y-106591100D01*
X118437214Y-106591100D01*
X118402046Y-106584104D01*
X118331707Y-106570113D01*
X118232325Y-106528948D01*
X118142881Y-106469183D01*
X118066817Y-106393119D01*
X118007052Y-106303675D01*
X117965887Y-106204293D01*
X117944900Y-106098785D01*
X117944900Y-105991215D01*
X117947846Y-105976407D01*
X117965887Y-105885709D01*
X117965887Y-105885707D01*
X118007052Y-105786325D01*
X118066817Y-105696881D01*
X118142881Y-105620817D01*
X118232325Y-105561052D01*
X118331707Y-105519887D01*
X118402046Y-105505896D01*
X118437214Y-105498900D01*
X118544786Y-105498900D01*
X118579954Y-105505896D01*
G37*
G36*
X47212710Y-102081313D02*
G01*
X47323877Y-102103425D01*
X47533308Y-102190174D01*
X47721793Y-102316115D01*
X47882085Y-102476407D01*
X48008026Y-102664892D01*
X48094775Y-102874323D01*
X48139000Y-103096657D01*
X48139000Y-103323343D01*
X48094775Y-103545677D01*
X48008026Y-103755108D01*
X47882085Y-103943593D01*
X47721793Y-104103885D01*
X47533308Y-104229826D01*
X47323877Y-104316575D01*
X47212710Y-104338688D01*
X47101544Y-104360800D01*
X46874856Y-104360800D01*
X46763690Y-104338688D01*
X46652523Y-104316575D01*
X46443092Y-104229826D01*
X46254607Y-104103885D01*
X46094315Y-103943593D01*
X45968374Y-103755108D01*
X45881625Y-103545677D01*
X45837400Y-103323343D01*
X45837400Y-103096657D01*
X45881625Y-102874323D01*
X45968374Y-102664892D01*
X46094315Y-102476407D01*
X46254607Y-102316115D01*
X46443092Y-102190174D01*
X46652523Y-102103425D01*
X46763690Y-102081313D01*
X46874856Y-102059200D01*
X47101544Y-102059200D01*
X47212710Y-102081313D01*
G37*
G36*
X168235800Y-103385800D02*
G01*
X165934200Y-103385800D01*
X165934200Y-101084200D01*
X168235800Y-101084200D01*
X168235800Y-103385800D01*
G37*
G36*
X145045800Y-103135800D02*
G01*
X143244200Y-103135800D01*
X143244200Y-101334200D01*
X145045800Y-101334200D01*
X145045800Y-103135800D01*
G37*
G36*
X158380800Y-103135800D02*
G01*
X156579200Y-103135800D01*
X156579200Y-101334200D01*
X158380800Y-101334200D01*
X158380800Y-103135800D01*
G37*
G36*
X64400800Y-103135800D02*
G01*
X62599200Y-103135800D01*
X62599200Y-101334200D01*
X64400800Y-101334200D01*
X64400800Y-103135800D01*
G37*
G36*
X88530800Y-103135800D02*
G01*
X86729200Y-103135800D01*
X86729200Y-101334200D01*
X88530800Y-101334200D01*
X88530800Y-103135800D01*
G37*
G36*
X52214510Y-98581312D02*
G01*
X52325677Y-98603425D01*
X52535108Y-98690174D01*
X52723593Y-98816115D01*
X52883885Y-98976407D01*
X52946873Y-99070676D01*
X53009826Y-99164892D01*
X53096575Y-99374324D01*
X53140800Y-99596656D01*
X53140800Y-99823344D01*
X53128377Y-99885800D01*
X53096575Y-100045677D01*
X53009826Y-100255108D01*
X52883885Y-100443593D01*
X52723593Y-100603885D01*
X52535108Y-100729826D01*
X52325677Y-100816575D01*
X52214510Y-100838687D01*
X52103344Y-100860800D01*
X51876656Y-100860800D01*
X51765490Y-100838687D01*
X51654323Y-100816575D01*
X51444892Y-100729826D01*
X51256407Y-100603885D01*
X51096115Y-100443593D01*
X50970174Y-100255108D01*
X50883425Y-100045677D01*
X50851623Y-99885800D01*
X50839200Y-99823344D01*
X50839200Y-99596656D01*
X50883425Y-99374324D01*
X50970174Y-99164892D01*
X51033127Y-99070676D01*
X51096115Y-98976407D01*
X51256407Y-98816115D01*
X51444892Y-98690174D01*
X51654323Y-98603425D01*
X51765490Y-98581312D01*
X51876656Y-98559200D01*
X52103344Y-98559200D01*
X52214510Y-98581312D01*
G37*
G36*
X64400800Y-100595800D02*
G01*
X62599200Y-100595800D01*
X62599200Y-98794200D01*
X64400800Y-98794200D01*
X64400800Y-100595800D01*
G37*
G36*
X157742754Y-98828817D02*
G01*
X157906689Y-98896721D01*
X158054227Y-98995303D01*
X158179697Y-99120773D01*
X158278279Y-99268311D01*
X158346183Y-99432246D01*
X158380800Y-99606279D01*
X158380800Y-99783721D01*
X158346183Y-99957754D01*
X158278279Y-100121689D01*
X158179697Y-100269227D01*
X158054227Y-100394697D01*
X157906689Y-100493279D01*
X157742754Y-100561183D01*
X157568721Y-100595800D01*
X157391279Y-100595800D01*
X157217246Y-100561183D01*
X157053311Y-100493279D01*
X156905773Y-100394697D01*
X156780303Y-100269227D01*
X156681721Y-100121689D01*
X156613817Y-99957754D01*
X156579200Y-99783721D01*
X156579200Y-99606279D01*
X156613817Y-99432246D01*
X156681721Y-99268311D01*
X156780303Y-99120773D01*
X156905773Y-98995303D01*
X157053311Y-98896721D01*
X157217246Y-98828817D01*
X157391279Y-98794200D01*
X157568721Y-98794200D01*
X157742754Y-98828817D01*
G37*
G36*
X88530800Y-100595800D02*
G01*
X86729200Y-100595800D01*
X86729200Y-98794200D01*
X88530800Y-98794200D01*
X88530800Y-100595800D01*
G37*
G36*
X172311310Y-97606313D02*
G01*
X172422477Y-97628425D01*
X172631908Y-97715174D01*
X172820393Y-97841115D01*
X172980685Y-98001407D01*
X173106626Y-98189892D01*
X173138030Y-98265707D01*
X173193375Y-98399324D01*
X173233974Y-98603425D01*
X173237600Y-98621657D01*
X173237600Y-98848343D01*
X173193375Y-99070677D01*
X173106626Y-99280108D01*
X172980685Y-99468593D01*
X172820393Y-99628885D01*
X172631908Y-99754826D01*
X172422477Y-99841575D01*
X172311310Y-99863687D01*
X172200144Y-99885800D01*
X171973456Y-99885800D01*
X171862290Y-99863687D01*
X171751123Y-99841575D01*
X171541692Y-99754826D01*
X171353207Y-99628885D01*
X171192915Y-99468593D01*
X171066974Y-99280108D01*
X170980225Y-99070677D01*
X170936000Y-98848343D01*
X170936000Y-98621657D01*
X170939627Y-98603425D01*
X170980225Y-98399324D01*
X171035571Y-98265707D01*
X171066974Y-98189892D01*
X171192915Y-98001407D01*
X171353207Y-97841115D01*
X171541692Y-97715174D01*
X171751123Y-97628425D01*
X171862290Y-97606312D01*
X171973456Y-97584200D01*
X172200144Y-97584200D01*
X172311310Y-97606313D01*
G37*
G36*
X117563954Y-97885896D02*
G01*
X117634293Y-97899887D01*
X117733675Y-97941052D01*
X117823119Y-98000817D01*
X117899183Y-98076881D01*
X117958948Y-98166325D01*
X118000113Y-98265707D01*
X118021100Y-98371215D01*
X118021100Y-98478785D01*
X118000113Y-98584293D01*
X117958948Y-98683675D01*
X117899183Y-98773119D01*
X117823119Y-98849183D01*
X117733675Y-98908948D01*
X117634293Y-98950113D01*
X117563954Y-98964104D01*
X117528786Y-98971100D01*
X117421214Y-98971100D01*
X117386046Y-98964104D01*
X117315707Y-98950113D01*
X117216325Y-98908948D01*
X117126881Y-98849183D01*
X117050817Y-98773119D01*
X116991052Y-98683675D01*
X116949887Y-98584293D01*
X116928900Y-98478785D01*
X116928900Y-98371215D01*
X116949887Y-98265707D01*
X116991052Y-98166325D01*
X117050817Y-98076881D01*
X117126881Y-98000817D01*
X117216325Y-97941052D01*
X117315707Y-97899887D01*
X117386046Y-97885896D01*
X117421214Y-97878900D01*
X117528786Y-97878900D01*
X117563954Y-97885896D01*
G37*
G36*
X64400800Y-98055800D02*
G01*
X62599200Y-98055800D01*
X62599200Y-96254200D01*
X64400800Y-96254200D01*
X64400800Y-98055800D01*
G37*
G36*
X88530800Y-98055800D02*
G01*
X86729200Y-98055800D01*
X86729200Y-96254200D01*
X88530800Y-96254200D01*
X88530800Y-98055800D01*
G37*
G36*
X47212710Y-95081313D02*
G01*
X47323877Y-95103425D01*
X47533308Y-95190174D01*
X47721793Y-95316115D01*
X47882085Y-95476407D01*
X48008026Y-95664892D01*
X48094775Y-95874323D01*
X48139000Y-96096657D01*
X48139000Y-96323343D01*
X48094775Y-96545677D01*
X48008026Y-96755108D01*
X47882085Y-96943593D01*
X47721793Y-97103885D01*
X47533308Y-97229826D01*
X47323877Y-97316575D01*
X47212710Y-97338688D01*
X47101544Y-97360800D01*
X46874856Y-97360800D01*
X46763690Y-97338688D01*
X46652523Y-97316575D01*
X46443092Y-97229826D01*
X46254607Y-97103885D01*
X46094315Y-96943593D01*
X45968374Y-96755108D01*
X45881625Y-96545677D01*
X45837400Y-96323343D01*
X45837400Y-96096657D01*
X45881625Y-95874323D01*
X45968374Y-95664892D01*
X46094315Y-95476407D01*
X46254607Y-95316115D01*
X46443092Y-95190174D01*
X46652523Y-95103425D01*
X46763690Y-95081313D01*
X46874856Y-95059200D01*
X47101544Y-95059200D01*
X47212710Y-95081313D01*
G37*
G36*
X64400800Y-95515800D02*
G01*
X62599200Y-95515800D01*
X62599200Y-93714200D01*
X64400800Y-93714200D01*
X64400800Y-95515800D01*
G37*
G36*
X88530800Y-95515800D02*
G01*
X86729200Y-95515800D01*
X86729200Y-93714200D01*
X88530800Y-93714200D01*
X88530800Y-95515800D01*
G37*
G36*
X168235800Y-94495800D02*
G01*
X165934200Y-94495800D01*
X165934200Y-92194200D01*
X168235800Y-92194200D01*
X168235800Y-94495800D01*
G37*
G36*
X158380800Y-94245800D02*
G01*
X156579200Y-94245800D01*
X156579200Y-92444200D01*
X158380800Y-92444200D01*
X158380800Y-94245800D01*
G37*
G36*
X145045800Y-94245800D02*
G01*
X143244200Y-94245800D01*
X143244200Y-92444200D01*
X145045800Y-92444200D01*
X145045800Y-94245800D01*
G37*
G36*
X53140800Y-93860800D02*
G01*
X50839200Y-93860800D01*
X50839200Y-91559200D01*
X53140800Y-91559200D01*
X53140800Y-93860800D01*
G37*
G36*
X76465800Y-93610800D02*
G01*
X74664200Y-93610800D01*
X74664200Y-91809200D01*
X76465800Y-91809200D01*
X76465800Y-93610800D01*
G37*
G36*
X157742754Y-89938817D02*
G01*
X157906689Y-90006721D01*
X158054227Y-90105303D01*
X158179697Y-90230773D01*
X158278279Y-90378311D01*
X158346183Y-90542246D01*
X158380800Y-90716279D01*
X158380800Y-90893721D01*
X158346183Y-91067754D01*
X158278279Y-91231689D01*
X158179697Y-91379227D01*
X158054227Y-91504697D01*
X157906689Y-91603279D01*
X157742754Y-91671183D01*
X157568721Y-91705800D01*
X157391279Y-91705800D01*
X157217246Y-91671183D01*
X157053311Y-91603279D01*
X156905773Y-91504697D01*
X156780303Y-91379227D01*
X156681721Y-91231689D01*
X156613817Y-91067754D01*
X156579200Y-90893721D01*
X156579200Y-90716279D01*
X156613817Y-90542246D01*
X156681721Y-90378311D01*
X156780303Y-90230773D01*
X156905773Y-90105303D01*
X157053311Y-90006721D01*
X157217246Y-89938817D01*
X157391279Y-89904200D01*
X157568721Y-89904200D01*
X157742754Y-89938817D01*
G37*
G36*
X172311310Y-88716313D02*
G01*
X172422477Y-88738425D01*
X172631908Y-88825174D01*
X172820393Y-88951115D01*
X172980685Y-89111407D01*
X173106626Y-89299892D01*
X173193375Y-89509323D01*
X173237600Y-89731657D01*
X173237600Y-89958343D01*
X173193375Y-90180677D01*
X173106626Y-90390108D01*
X172980685Y-90578593D01*
X172820393Y-90738885D01*
X172631908Y-90864826D01*
X172422477Y-90951575D01*
X172311310Y-90973688D01*
X172200144Y-90995800D01*
X171973456Y-90995800D01*
X171862290Y-90973688D01*
X171751123Y-90951575D01*
X171541692Y-90864826D01*
X171353207Y-90738885D01*
X171192915Y-90578593D01*
X171066974Y-90390108D01*
X170980225Y-90180677D01*
X170936000Y-89958343D01*
X170936000Y-89731657D01*
X170980225Y-89509323D01*
X171066974Y-89299892D01*
X171192915Y-89111407D01*
X171353207Y-88951115D01*
X171541692Y-88825174D01*
X171751123Y-88738425D01*
X171862290Y-88716313D01*
X171973456Y-88694200D01*
X172200144Y-88694200D01*
X172311310Y-88716313D01*
G37*
G36*
X49938598Y-84657032D02*
G01*
X50193528Y-84762627D01*
X50422958Y-84915927D01*
X50618073Y-85111042D01*
X50771373Y-85340472D01*
X50876968Y-85595402D01*
X50930800Y-85866033D01*
X50930800Y-86141967D01*
X50876968Y-86412598D01*
X50771373Y-86667528D01*
X50618073Y-86896958D01*
X50422958Y-87092073D01*
X50193528Y-87245373D01*
X49938598Y-87350968D01*
X49667967Y-87404800D01*
X49392033Y-87404800D01*
X49121402Y-87350968D01*
X48866472Y-87245373D01*
X48637042Y-87092073D01*
X48441927Y-86896958D01*
X48288627Y-86667528D01*
X48183032Y-86412598D01*
X48129200Y-86141967D01*
X48129200Y-85866033D01*
X48183032Y-85595402D01*
X48288627Y-85340472D01*
X48441927Y-85111042D01*
X48637042Y-84915927D01*
X48866472Y-84762627D01*
X49121402Y-84657032D01*
X49392033Y-84603200D01*
X49667967Y-84603200D01*
X49938598Y-84657032D01*
G37*
G36*
X142902598Y-84657032D02*
G01*
X143157528Y-84762627D01*
X143386958Y-84915927D01*
X143582073Y-85111042D01*
X143735373Y-85340472D01*
X143840968Y-85595402D01*
X143894800Y-85866033D01*
X143894800Y-86141967D01*
X143840968Y-86412598D01*
X143735373Y-86667528D01*
X143582073Y-86896958D01*
X143386958Y-87092073D01*
X143157528Y-87245373D01*
X142902598Y-87350968D01*
X142631967Y-87404800D01*
X142356033Y-87404800D01*
X142085402Y-87350968D01*
X141830472Y-87245373D01*
X141601042Y-87092073D01*
X141405927Y-86896958D01*
X141252627Y-86667528D01*
X141147032Y-86412598D01*
X141093200Y-86141967D01*
X141093200Y-85866033D01*
X141147032Y-85595402D01*
X141252627Y-85340472D01*
X141405927Y-85111042D01*
X141601042Y-84915927D01*
X141830472Y-84762627D01*
X142085402Y-84657032D01*
X142356033Y-84603200D01*
X142631967Y-84603200D01*
X142902598Y-84657032D01*
G37*
G36*
X150760800Y-86625800D02*
G01*
X148959200Y-86625800D01*
X148959200Y-84824200D01*
X150760800Y-84824200D01*
X150760800Y-86625800D01*
G37*
G36*
X168235800Y-85605800D02*
G01*
X165934200Y-85605800D01*
X165934200Y-83304200D01*
X168235800Y-83304200D01*
X168235800Y-85605800D01*
G37*
G36*
X163460800Y-85355800D02*
G01*
X161659200Y-85355800D01*
X161659200Y-83554200D01*
X163460800Y-83554200D01*
X163460800Y-85355800D01*
G37*
G36*
X162822754Y-81048817D02*
G01*
X162986689Y-81116721D01*
X163134227Y-81215303D01*
X163259697Y-81340773D01*
X163358279Y-81488311D01*
X163426183Y-81652246D01*
X163460800Y-81826279D01*
X163460800Y-82003721D01*
X163426183Y-82177754D01*
X163358279Y-82341689D01*
X163259697Y-82489227D01*
X163134227Y-82614697D01*
X162986689Y-82713279D01*
X162822754Y-82781183D01*
X162648721Y-82815800D01*
X162471279Y-82815800D01*
X162297246Y-82781183D01*
X162133311Y-82713279D01*
X161985773Y-82614697D01*
X161860303Y-82489227D01*
X161761721Y-82341689D01*
X161693817Y-82177754D01*
X161659200Y-82003721D01*
X161659200Y-81826279D01*
X161693817Y-81652246D01*
X161761721Y-81488311D01*
X161860303Y-81340773D01*
X161985773Y-81215303D01*
X162133311Y-81116721D01*
X162297246Y-81048817D01*
X162471279Y-81014200D01*
X162648721Y-81014200D01*
X162822754Y-81048817D01*
G37*
G36*
X172311310Y-79826312D02*
G01*
X172422477Y-79848425D01*
X172631908Y-79935174D01*
X172820393Y-80061115D01*
X172980685Y-80221407D01*
X173106626Y-80409892D01*
X173193375Y-80619323D01*
X173237600Y-80841657D01*
X173237600Y-81068343D01*
X173193375Y-81290677D01*
X173106626Y-81500108D01*
X172980685Y-81688593D01*
X172820393Y-81848885D01*
X172631908Y-81974826D01*
X172422477Y-82061575D01*
X172311310Y-82083688D01*
X172200144Y-82105800D01*
X171973456Y-82105800D01*
X171862290Y-82083688D01*
X171751123Y-82061575D01*
X171541692Y-81974826D01*
X171353207Y-81848885D01*
X171192915Y-81688593D01*
X171066974Y-81500108D01*
X170980225Y-81290677D01*
X170936000Y-81068343D01*
X170936000Y-80841657D01*
X170980225Y-80619323D01*
X171066974Y-80409892D01*
X171192915Y-80221407D01*
X171353207Y-80061115D01*
X171541692Y-79935174D01*
X171751123Y-79848425D01*
X171862290Y-79826313D01*
X171973456Y-79804200D01*
X172200144Y-79804200D01*
X172311310Y-79826312D01*
G37*
G36*
X150760800Y-77735800D02*
G01*
X148959200Y-77735800D01*
X148959200Y-75934200D01*
X150760800Y-75934200D01*
X150760800Y-77735800D01*
G37*
G36*
X168235800Y-76715800D02*
G01*
X165934200Y-76715800D01*
X165934200Y-74414200D01*
X168235800Y-74414200D01*
X168235800Y-76715800D01*
G37*
G36*
X163460800Y-76465800D02*
G01*
X161659200Y-76465800D01*
X161659200Y-74664200D01*
X163460800Y-74664200D01*
X163460800Y-76465800D01*
G37*
G36*
X162822754Y-72158817D02*
G01*
X162986689Y-72226721D01*
X163134227Y-72325303D01*
X163259697Y-72450773D01*
X163358279Y-72598311D01*
X163426183Y-72762246D01*
X163460800Y-72936279D01*
X163460800Y-73113721D01*
X163426183Y-73287754D01*
X163358279Y-73451689D01*
X163259697Y-73599227D01*
X163134227Y-73724697D01*
X162986689Y-73823279D01*
X162822754Y-73891183D01*
X162648721Y-73925800D01*
X162471279Y-73925800D01*
X162297246Y-73891183D01*
X162133311Y-73823279D01*
X161985773Y-73724697D01*
X161860303Y-73599227D01*
X161761721Y-73451689D01*
X161693817Y-73287754D01*
X161659200Y-73113721D01*
X161659200Y-72936279D01*
X161693817Y-72762246D01*
X161761721Y-72598311D01*
X161860303Y-72450773D01*
X161985773Y-72325303D01*
X162133311Y-72226721D01*
X162297246Y-72158817D01*
X162471279Y-72124200D01*
X162648721Y-72124200D01*
X162822754Y-72158817D01*
G37*
G36*
X172311310Y-70936312D02*
G01*
X172422477Y-70958425D01*
X172631908Y-71045174D01*
X172820393Y-71171115D01*
X172980685Y-71331407D01*
X173106626Y-71519892D01*
X173193375Y-71729323D01*
X173237600Y-71951657D01*
X173237600Y-72178343D01*
X173193375Y-72400677D01*
X173106626Y-72610108D01*
X172980685Y-72798593D01*
X172820393Y-72958885D01*
X172631908Y-73084826D01*
X172422477Y-73171575D01*
X172311310Y-73193687D01*
X172200144Y-73215800D01*
X171973456Y-73215800D01*
X171862290Y-73193687D01*
X171751123Y-73171575D01*
X171541692Y-73084826D01*
X171353207Y-72958885D01*
X171192915Y-72798593D01*
X171066974Y-72610108D01*
X170980225Y-72400677D01*
X170936000Y-72178343D01*
X170936000Y-71951657D01*
X170980225Y-71729323D01*
X171066974Y-71519892D01*
X171192915Y-71331407D01*
X171353207Y-71171115D01*
X171541692Y-71045174D01*
X171751123Y-70958425D01*
X171862290Y-70936312D01*
X171973456Y-70914200D01*
X172200144Y-70914200D01*
X172311310Y-70936312D01*
G37*
G36*
X167902754Y-65808817D02*
G01*
X168066689Y-65876721D01*
X168214227Y-65975303D01*
X168339697Y-66100773D01*
X168438279Y-66248311D01*
X168506183Y-66412246D01*
X168540800Y-66586279D01*
X168540800Y-66763721D01*
X168506183Y-66937754D01*
X168438279Y-67101689D01*
X168339697Y-67249227D01*
X168214227Y-67374697D01*
X168066689Y-67473279D01*
X167902754Y-67541183D01*
X167728721Y-67575800D01*
X167551279Y-67575800D01*
X167377246Y-67541183D01*
X167213311Y-67473279D01*
X167065773Y-67374697D01*
X166940303Y-67249227D01*
X166841721Y-67101689D01*
X166773817Y-66937754D01*
X166739200Y-66763721D01*
X166739200Y-66586279D01*
X166773817Y-66412246D01*
X166841721Y-66248311D01*
X166940303Y-66100773D01*
X167065773Y-65975303D01*
X167213311Y-65876721D01*
X167377246Y-65808817D01*
X167551279Y-65774200D01*
X167728721Y-65774200D01*
X167902754Y-65808817D01*
G37*
G36*
X171080800Y-67575800D02*
G01*
X169279200Y-67575800D01*
X169279200Y-65774200D01*
X171080800Y-65774200D01*
X171080800Y-67575800D01*
G37*
G36*
X151392754Y-56918817D02*
G01*
X151556689Y-56986721D01*
X151704227Y-57085303D01*
X151829697Y-57210773D01*
X151928279Y-57358311D01*
X151996183Y-57522246D01*
X152030800Y-57696279D01*
X152030800Y-57873721D01*
X151996183Y-58047754D01*
X151928279Y-58211689D01*
X151829697Y-58359227D01*
X151704227Y-58484697D01*
X151556689Y-58583279D01*
X151392754Y-58651183D01*
X151218721Y-58685800D01*
X151041279Y-58685800D01*
X150867246Y-58651183D01*
X150703311Y-58583279D01*
X150555773Y-58484697D01*
X150430303Y-58359227D01*
X150331721Y-58211689D01*
X150263817Y-58047754D01*
X150229200Y-57873721D01*
X150229200Y-57696279D01*
X150263817Y-57522246D01*
X150331721Y-57358311D01*
X150430303Y-57210773D01*
X150555773Y-57085303D01*
X150703311Y-56986721D01*
X150867246Y-56918817D01*
X151041279Y-56884200D01*
X151218721Y-56884200D01*
X151392754Y-56918817D01*
G37*
G36*
X167902754Y-56283817D02*
G01*
X168066689Y-56351721D01*
X168214227Y-56450303D01*
X168339697Y-56575773D01*
X168438279Y-56723311D01*
X168506183Y-56887246D01*
X168540800Y-57061279D01*
X168540800Y-57238721D01*
X168506183Y-57412754D01*
X168438279Y-57576689D01*
X168339697Y-57724227D01*
X168214227Y-57849697D01*
X168066689Y-57948279D01*
X167902754Y-58016183D01*
X167728721Y-58050800D01*
X167551279Y-58050800D01*
X167377246Y-58016183D01*
X167213311Y-57948279D01*
X167065773Y-57849697D01*
X166940303Y-57724227D01*
X166841721Y-57576689D01*
X166773817Y-57412754D01*
X166739200Y-57238721D01*
X166739200Y-57061279D01*
X166773817Y-56887246D01*
X166841721Y-56723311D01*
X166940303Y-56575773D01*
X167065773Y-56450303D01*
X167213311Y-56351721D01*
X167377246Y-56283817D01*
X167551279Y-56249200D01*
X167728721Y-56249200D01*
X167902754Y-56283817D01*
G37*
G36*
X171080800Y-58050800D02*
G01*
X169279200Y-58050800D01*
X169279200Y-56249200D01*
X171080800Y-56249200D01*
X171080800Y-58050800D01*
G37*
G36*
X151392754Y-54378817D02*
G01*
X151556689Y-54446721D01*
X151704227Y-54545303D01*
X151829697Y-54670773D01*
X151928279Y-54818311D01*
X151996183Y-54982246D01*
X152030800Y-55156279D01*
X152030800Y-55333721D01*
X151996183Y-55507754D01*
X151928279Y-55671689D01*
X151829697Y-55819227D01*
X151704227Y-55944697D01*
X151556689Y-56043279D01*
X151392754Y-56111183D01*
X151218721Y-56145800D01*
X151041279Y-56145800D01*
X150867246Y-56111183D01*
X150703311Y-56043279D01*
X150555773Y-55944697D01*
X150430303Y-55819227D01*
X150331721Y-55671689D01*
X150263817Y-55507754D01*
X150229200Y-55333721D01*
X150229200Y-55156279D01*
X150263817Y-54982246D01*
X150331721Y-54818311D01*
X150430303Y-54670773D01*
X150555773Y-54545303D01*
X150703311Y-54446721D01*
X150867246Y-54378817D01*
X151041279Y-54344200D01*
X151218721Y-54344200D01*
X151392754Y-54378817D01*
G37*
G36*
X170361488Y-52177595D02*
G01*
X170536000Y-52230533D01*
X170696835Y-52316501D01*
X170837807Y-52432193D01*
X170953500Y-52573165D01*
X171039467Y-52733999D01*
X171092405Y-52908511D01*
X171105800Y-53044513D01*
X171105800Y-53635486D01*
X171092405Y-53771488D01*
X171039467Y-53946000D01*
X170953499Y-54106835D01*
X170837807Y-54247807D01*
X170696835Y-54363500D01*
X170536001Y-54449467D01*
X170361489Y-54502405D01*
X170180000Y-54520280D01*
X169998512Y-54502405D01*
X169824000Y-54449467D01*
X169663166Y-54363500D01*
X169522194Y-54247807D01*
X169406501Y-54106835D01*
X169320533Y-53946001D01*
X169267595Y-53771489D01*
X169254200Y-53635487D01*
X169254200Y-53044514D01*
X169267595Y-52908512D01*
X169320533Y-52734000D01*
X169406501Y-52573165D01*
X169522193Y-52432193D01*
X169663165Y-52316500D01*
X169823999Y-52230533D01*
X169998511Y-52177595D01*
X170180000Y-52159720D01*
X170361488Y-52177595D01*
G37*
G36*
X167821488Y-52177595D02*
G01*
X167996000Y-52230533D01*
X168156835Y-52316501D01*
X168297807Y-52432193D01*
X168413500Y-52573165D01*
X168499467Y-52733999D01*
X168552405Y-52908511D01*
X168565800Y-53044513D01*
X168565800Y-53635486D01*
X168552405Y-53771488D01*
X168499467Y-53946000D01*
X168413499Y-54106835D01*
X168297807Y-54247807D01*
X168156835Y-54363500D01*
X167996001Y-54449467D01*
X167821489Y-54502405D01*
X167640000Y-54520280D01*
X167458512Y-54502405D01*
X167284000Y-54449467D01*
X167123166Y-54363500D01*
X166982194Y-54247807D01*
X166866501Y-54106835D01*
X166780533Y-53946001D01*
X166727595Y-53771489D01*
X166714200Y-53635487D01*
X166714200Y-53044514D01*
X166727595Y-52908512D01*
X166780533Y-52734000D01*
X166866501Y-52573165D01*
X166982193Y-52432193D01*
X167123165Y-52316500D01*
X167283999Y-52230533D01*
X167458511Y-52177595D01*
X167640000Y-52159720D01*
X167821488Y-52177595D01*
G37*
G36*
X165281488Y-52177595D02*
G01*
X165456000Y-52230533D01*
X165616835Y-52316501D01*
X165757807Y-52432193D01*
X165873500Y-52573165D01*
X165959467Y-52733999D01*
X166012405Y-52908511D01*
X166025800Y-53044513D01*
X166025800Y-53635486D01*
X166012405Y-53771488D01*
X165959467Y-53946000D01*
X165873499Y-54106835D01*
X165757807Y-54247807D01*
X165616835Y-54363500D01*
X165456001Y-54449467D01*
X165281489Y-54502405D01*
X165100000Y-54520280D01*
X164918512Y-54502405D01*
X164744000Y-54449467D01*
X164583166Y-54363500D01*
X164442194Y-54247807D01*
X164326501Y-54106835D01*
X164240533Y-53946001D01*
X164187595Y-53771489D01*
X164174200Y-53635487D01*
X164174200Y-53044514D01*
X164187595Y-52908512D01*
X164240533Y-52734000D01*
X164326501Y-52573165D01*
X164442193Y-52432193D01*
X164583165Y-52316500D01*
X164743999Y-52230533D01*
X164918511Y-52177595D01*
X165100000Y-52159720D01*
X165281488Y-52177595D01*
G37*
G36*
X163485800Y-54515800D02*
G01*
X161634200Y-54515800D01*
X161634200Y-52164200D01*
X163485800Y-52164200D01*
X163485800Y-54515800D01*
G37*
G36*
X151392754Y-51838817D02*
G01*
X151556689Y-51906721D01*
X151704227Y-52005303D01*
X151829697Y-52130773D01*
X151928279Y-52278311D01*
X151996183Y-52442246D01*
X152030800Y-52616279D01*
X152030800Y-52793721D01*
X151996183Y-52967754D01*
X151928279Y-53131689D01*
X151829697Y-53279227D01*
X151704227Y-53404697D01*
X151556689Y-53503279D01*
X151392754Y-53571183D01*
X151218721Y-53605800D01*
X151041279Y-53605800D01*
X150867246Y-53571183D01*
X150703311Y-53503279D01*
X150555773Y-53404697D01*
X150430303Y-53279227D01*
X150331721Y-53131689D01*
X150263817Y-52967754D01*
X150229200Y-52793721D01*
X150229200Y-52616279D01*
X150263817Y-52442246D01*
X150331721Y-52278311D01*
X150430303Y-52130773D01*
X150555773Y-52005303D01*
X150703311Y-51906721D01*
X150867246Y-51838817D01*
X151041279Y-51804200D01*
X151218721Y-51804200D01*
X151392754Y-51838817D01*
G37*
G36*
X152030800Y-51065800D02*
G01*
X150229200Y-51065800D01*
X150229200Y-49264200D01*
X152030800Y-49264200D01*
X152030800Y-51065800D01*
G37*
G36*
X179586521Y-29527639D02*
G01*
X179886947Y-29652080D01*
X180157324Y-29832740D01*
X180387260Y-30062676D01*
X180567920Y-30333053D01*
X180692361Y-30633479D01*
X180755800Y-30952410D01*
X180755800Y-31277590D01*
X180692361Y-31596521D01*
X180567920Y-31896947D01*
X180387260Y-32167324D01*
X180157324Y-32397260D01*
X179886947Y-32577920D01*
X179586521Y-32702361D01*
X179267590Y-32765800D01*
X178942410Y-32765800D01*
X178623479Y-32702361D01*
X178323053Y-32577920D01*
X178052676Y-32397260D01*
X177822740Y-32167324D01*
X177642080Y-31896947D01*
X177517639Y-31596521D01*
X177454200Y-31277590D01*
X177454200Y-30952410D01*
X177517639Y-30633479D01*
X177642080Y-30333053D01*
X177822740Y-30062676D01*
X178052676Y-29832740D01*
X178323053Y-29652080D01*
X178623479Y-29527639D01*
X178942410Y-29464200D01*
X179267590Y-29464200D01*
X179586521Y-29527639D01*
G37*
G36*
X41086521Y-29527639D02*
G01*
X41386947Y-29652080D01*
X41657324Y-29832740D01*
X41887260Y-30062676D01*
X42067920Y-30333053D01*
X42192361Y-30633479D01*
X42255800Y-30952410D01*
X42255800Y-31277590D01*
X42192361Y-31596521D01*
X42067920Y-31896947D01*
X41887260Y-32167324D01*
X41657324Y-32397260D01*
X41386947Y-32577920D01*
X41086521Y-32702361D01*
X40767590Y-32765800D01*
X40442410Y-32765800D01*
X40123479Y-32702361D01*
X39823053Y-32577920D01*
X39552676Y-32397260D01*
X39322740Y-32167324D01*
X39142080Y-31896947D01*
X39017639Y-31596521D01*
X38954200Y-31277590D01*
X38954200Y-30952410D01*
X39017639Y-30633479D01*
X39142080Y-30333053D01*
X39322740Y-30062676D01*
X39552676Y-29832740D01*
X39823053Y-29652080D01*
X40123479Y-29527639D01*
X40442410Y-29464200D01*
X40767590Y-29464200D01*
X41086521Y-29527639D01*
G37*
G36*
X142902598Y-29539032D02*
G01*
X143157528Y-29644627D01*
X143386958Y-29797927D01*
X143582073Y-29993042D01*
X143735373Y-30222472D01*
X143840968Y-30477402D01*
X143894800Y-30748033D01*
X143894800Y-31023967D01*
X143840968Y-31294598D01*
X143735373Y-31549528D01*
X143582073Y-31778958D01*
X143386958Y-31974073D01*
X143157528Y-32127373D01*
X142902598Y-32232968D01*
X142631967Y-32286800D01*
X142356033Y-32286800D01*
X142085402Y-32232968D01*
X141830472Y-32127373D01*
X141601042Y-31974073D01*
X141405927Y-31778958D01*
X141252627Y-31549528D01*
X141147032Y-31294598D01*
X141093200Y-31023967D01*
X141093200Y-30748033D01*
X141147032Y-30477402D01*
X141252627Y-30222472D01*
X141405927Y-29993042D01*
X141601042Y-29797927D01*
X141830472Y-29644627D01*
X142085402Y-29539032D01*
X142356033Y-29485200D01*
X142631967Y-29485200D01*
X142902598Y-29539032D01*
G37*
G36*
X49938598Y-29539032D02*
G01*
X50193528Y-29644627D01*
X50422958Y-29797927D01*
X50618073Y-29993042D01*
X50771373Y-30222472D01*
X50876968Y-30477402D01*
X50930800Y-30748033D01*
X50930800Y-31023967D01*
X50876968Y-31294598D01*
X50771373Y-31549528D01*
X50618073Y-31778958D01*
X50422958Y-31974073D01*
X50193528Y-32127373D01*
X49938598Y-32232968D01*
X49667967Y-32286800D01*
X49392033Y-32286800D01*
X49121402Y-32232968D01*
X48866472Y-32127373D01*
X48637042Y-31974073D01*
X48441927Y-31778958D01*
X48288627Y-31549528D01*
X48183032Y-31294598D01*
X48129200Y-31023967D01*
X48129200Y-30748033D01*
X48183032Y-30477402D01*
X48288627Y-30222472D01*
X48441927Y-29993042D01*
X48637042Y-29797927D01*
X48866472Y-29644627D01*
X49121402Y-29539032D01*
X49392033Y-29485200D01*
X49667967Y-29485200D01*
X49938598Y-29539032D01*
G37*
G36*
X77732754Y-30019817D02*
G01*
X77896689Y-30087721D01*
X78044227Y-30186303D01*
X78169697Y-30311773D01*
X78268279Y-30459311D01*
X78336183Y-30623246D01*
X78370800Y-30797279D01*
X78370800Y-30974721D01*
X78336183Y-31148754D01*
X78268279Y-31312689D01*
X78169697Y-31460227D01*
X78044227Y-31585697D01*
X77896689Y-31684279D01*
X77732754Y-31752183D01*
X77558721Y-31786800D01*
X77381279Y-31786800D01*
X77207246Y-31752183D01*
X77043311Y-31684279D01*
X76895773Y-31585697D01*
X76770303Y-31460227D01*
X76671721Y-31312689D01*
X76603817Y-31148754D01*
X76569200Y-30974721D01*
X76569200Y-30797279D01*
X76603817Y-30623246D01*
X76671721Y-30459311D01*
X76770303Y-30311773D01*
X76895773Y-30186303D01*
X77043311Y-30087721D01*
X77207246Y-30019817D01*
X77381279Y-29985200D01*
X77558721Y-29985200D01*
X77732754Y-30019817D01*
G37*
G36*
X96150800Y-31786800D02*
G01*
X94349200Y-31786800D01*
X94349200Y-29985200D01*
X96150800Y-29985200D01*
X96150800Y-31786800D01*
G37*
G36*
X92972754Y-30019817D02*
G01*
X93136689Y-30087721D01*
X93284227Y-30186303D01*
X93409697Y-30311773D01*
X93508279Y-30459311D01*
X93576183Y-30623246D01*
X93610800Y-30797279D01*
X93610800Y-30974721D01*
X93576183Y-31148754D01*
X93508279Y-31312689D01*
X93409697Y-31460227D01*
X93284227Y-31585697D01*
X93136689Y-31684279D01*
X92972754Y-31752183D01*
X92798721Y-31786800D01*
X92621279Y-31786800D01*
X92447246Y-31752183D01*
X92283311Y-31684279D01*
X92135773Y-31585697D01*
X92010303Y-31460227D01*
X91911721Y-31312689D01*
X91843817Y-31148754D01*
X91809200Y-30974721D01*
X91809200Y-30797279D01*
X91843817Y-30623246D01*
X91911721Y-30459311D01*
X92010303Y-30311773D01*
X92135773Y-30186303D01*
X92283311Y-30087721D01*
X92447246Y-30019817D01*
X92621279Y-29985200D01*
X92798721Y-29985200D01*
X92972754Y-30019817D01*
G37*
G36*
X80272754Y-30019817D02*
G01*
X80436689Y-30087721D01*
X80584227Y-30186303D01*
X80709697Y-30311773D01*
X80808279Y-30459311D01*
X80876183Y-30623246D01*
X80910800Y-30797279D01*
X80910800Y-30974721D01*
X80876183Y-31148754D01*
X80808279Y-31312689D01*
X80709697Y-31460227D01*
X80584227Y-31585697D01*
X80436689Y-31684279D01*
X80272754Y-31752183D01*
X80098721Y-31786800D01*
X79921279Y-31786800D01*
X79747246Y-31752183D01*
X79583311Y-31684279D01*
X79435773Y-31585697D01*
X79310303Y-31460227D01*
X79211721Y-31312689D01*
X79143817Y-31148754D01*
X79109200Y-30974721D01*
X79109200Y-30797279D01*
X79143817Y-30623246D01*
X79211721Y-30459311D01*
X79310303Y-30311773D01*
X79435773Y-30186303D01*
X79583311Y-30087721D01*
X79747246Y-30019817D01*
X79921279Y-29985200D01*
X80098721Y-29985200D01*
X80272754Y-30019817D01*
G37*
G36*
X82812754Y-30019817D02*
G01*
X82976689Y-30087721D01*
X83124227Y-30186303D01*
X83249697Y-30311773D01*
X83348279Y-30459311D01*
X83416183Y-30623246D01*
X83450800Y-30797279D01*
X83450800Y-30974721D01*
X83416183Y-31148754D01*
X83348279Y-31312689D01*
X83249697Y-31460227D01*
X83124227Y-31585697D01*
X82976689Y-31684279D01*
X82812754Y-31752183D01*
X82638721Y-31786800D01*
X82461279Y-31786800D01*
X82287246Y-31752183D01*
X82123311Y-31684279D01*
X81975773Y-31585697D01*
X81850303Y-31460227D01*
X81751721Y-31312689D01*
X81683817Y-31148754D01*
X81649200Y-30974721D01*
X81649200Y-30797279D01*
X81683817Y-30623246D01*
X81751721Y-30459311D01*
X81850303Y-30311773D01*
X81975773Y-30186303D01*
X82123311Y-30087721D01*
X82287246Y-30019817D01*
X82461279Y-29985200D01*
X82638721Y-29985200D01*
X82812754Y-30019817D01*
G37*
G36*
X70112754Y-30019817D02*
G01*
X70276689Y-30087721D01*
X70424227Y-30186303D01*
X70549697Y-30311773D01*
X70648279Y-30459311D01*
X70716183Y-30623246D01*
X70750800Y-30797279D01*
X70750800Y-30974721D01*
X70716183Y-31148754D01*
X70648279Y-31312689D01*
X70549697Y-31460227D01*
X70424227Y-31585697D01*
X70276689Y-31684279D01*
X70112754Y-31752183D01*
X69938721Y-31786800D01*
X69761279Y-31786800D01*
X69587246Y-31752183D01*
X69423311Y-31684279D01*
X69275773Y-31585697D01*
X69150303Y-31460227D01*
X69051721Y-31312689D01*
X68983817Y-31148754D01*
X68949200Y-30974721D01*
X68949200Y-30797279D01*
X68983817Y-30623246D01*
X69051721Y-30459311D01*
X69150303Y-30311773D01*
X69275773Y-30186303D01*
X69423311Y-30087721D01*
X69587246Y-30019817D01*
X69761279Y-29985200D01*
X69938721Y-29985200D01*
X70112754Y-30019817D01*
G37*
G36*
X67572754Y-30019817D02*
G01*
X67736689Y-30087721D01*
X67884227Y-30186303D01*
X68009697Y-30311773D01*
X68108279Y-30459311D01*
X68176183Y-30623246D01*
X68210800Y-30797279D01*
X68210800Y-30974721D01*
X68176183Y-31148754D01*
X68108279Y-31312689D01*
X68009697Y-31460227D01*
X67884227Y-31585697D01*
X67736689Y-31684279D01*
X67572754Y-31752183D01*
X67398721Y-31786800D01*
X67221279Y-31786800D01*
X67047246Y-31752183D01*
X66883311Y-31684279D01*
X66735773Y-31585697D01*
X66610303Y-31460227D01*
X66511721Y-31312689D01*
X66443817Y-31148754D01*
X66409200Y-30974721D01*
X66409200Y-30797279D01*
X66443817Y-30623246D01*
X66511721Y-30459311D01*
X66610303Y-30311773D01*
X66735773Y-30186303D01*
X66883311Y-30087721D01*
X67047246Y-30019817D01*
X67221279Y-29985200D01*
X67398721Y-29985200D01*
X67572754Y-30019817D01*
G37*
G36*
X85352754Y-30019817D02*
G01*
X85516689Y-30087721D01*
X85664227Y-30186303D01*
X85789697Y-30311773D01*
X85888279Y-30459311D01*
X85956183Y-30623246D01*
X85990800Y-30797279D01*
X85990800Y-30974721D01*
X85956183Y-31148754D01*
X85888279Y-31312689D01*
X85789697Y-31460227D01*
X85664227Y-31585697D01*
X85516689Y-31684279D01*
X85352754Y-31752183D01*
X85178721Y-31786800D01*
X85001279Y-31786800D01*
X84827246Y-31752183D01*
X84663311Y-31684279D01*
X84515773Y-31585697D01*
X84390303Y-31460227D01*
X84291721Y-31312689D01*
X84223817Y-31148754D01*
X84189200Y-30974721D01*
X84189200Y-30797279D01*
X84223817Y-30623246D01*
X84291721Y-30459311D01*
X84390303Y-30311773D01*
X84515773Y-30186303D01*
X84663311Y-30087721D01*
X84827246Y-30019817D01*
X85001279Y-29985200D01*
X85178721Y-29985200D01*
X85352754Y-30019817D01*
G37*
G36*
X75192754Y-30019817D02*
G01*
X75356689Y-30087721D01*
X75504227Y-30186303D01*
X75629697Y-30311773D01*
X75728279Y-30459311D01*
X75796183Y-30623246D01*
X75830800Y-30797279D01*
X75830800Y-30974721D01*
X75796183Y-31148754D01*
X75728279Y-31312689D01*
X75629697Y-31460227D01*
X75504227Y-31585697D01*
X75356689Y-31684279D01*
X75192754Y-31752183D01*
X75018721Y-31786800D01*
X74841279Y-31786800D01*
X74667246Y-31752183D01*
X74503311Y-31684279D01*
X74355773Y-31585697D01*
X74230303Y-31460227D01*
X74131721Y-31312689D01*
X74063817Y-31148754D01*
X74029200Y-30974721D01*
X74029200Y-30797279D01*
X74063817Y-30623246D01*
X74131721Y-30459311D01*
X74230303Y-30311773D01*
X74355773Y-30186303D01*
X74503311Y-30087721D01*
X74667246Y-30019817D01*
X74841279Y-29985200D01*
X75018721Y-29985200D01*
X75192754Y-30019817D01*
G37*
G36*
X72652754Y-30019817D02*
G01*
X72816689Y-30087721D01*
X72964227Y-30186303D01*
X73089697Y-30311773D01*
X73188279Y-30459311D01*
X73256183Y-30623246D01*
X73290800Y-30797279D01*
X73290800Y-30974721D01*
X73256183Y-31148754D01*
X73188279Y-31312689D01*
X73089697Y-31460227D01*
X72964227Y-31585697D01*
X72816689Y-31684279D01*
X72652754Y-31752183D01*
X72478721Y-31786800D01*
X72301279Y-31786800D01*
X72127246Y-31752183D01*
X71963311Y-31684279D01*
X71815773Y-31585697D01*
X71690303Y-31460227D01*
X71591721Y-31312689D01*
X71523817Y-31148754D01*
X71489200Y-30974721D01*
X71489200Y-30797279D01*
X71523817Y-30623246D01*
X71591721Y-30459311D01*
X71690303Y-30311773D01*
X71815773Y-30186303D01*
X71963311Y-30087721D01*
X72127246Y-30019817D01*
X72301279Y-29985200D01*
X72478721Y-29985200D01*
X72652754Y-30019817D01*
G37*
G36*
X90432754Y-30019817D02*
G01*
X90596689Y-30087721D01*
X90744227Y-30186303D01*
X90869697Y-30311773D01*
X90968279Y-30459311D01*
X91036183Y-30623246D01*
X91070800Y-30797279D01*
X91070800Y-30974721D01*
X91036183Y-31148754D01*
X90968279Y-31312689D01*
X90869697Y-31460227D01*
X90744227Y-31585697D01*
X90596689Y-31684279D01*
X90432754Y-31752183D01*
X90258721Y-31786800D01*
X90081279Y-31786800D01*
X89907246Y-31752183D01*
X89743311Y-31684279D01*
X89595773Y-31585697D01*
X89470303Y-31460227D01*
X89371721Y-31312689D01*
X89303817Y-31148754D01*
X89269200Y-30974721D01*
X89269200Y-30797279D01*
X89303817Y-30623246D01*
X89371721Y-30459311D01*
X89470303Y-30311773D01*
X89595773Y-30186303D01*
X89743311Y-30087721D01*
X89907246Y-30019817D01*
X90081279Y-29985200D01*
X90258721Y-29985200D01*
X90432754Y-30019817D01*
G37*
G36*
X57412754Y-30019817D02*
G01*
X57576689Y-30087721D01*
X57724227Y-30186303D01*
X57849697Y-30311773D01*
X57948279Y-30459311D01*
X58016183Y-30623246D01*
X58050800Y-30797279D01*
X58050800Y-30974721D01*
X58016183Y-31148754D01*
X57948279Y-31312689D01*
X57849697Y-31460227D01*
X57724227Y-31585697D01*
X57576689Y-31684279D01*
X57412754Y-31752183D01*
X57238721Y-31786800D01*
X57061279Y-31786800D01*
X56887246Y-31752183D01*
X56723311Y-31684279D01*
X56575773Y-31585697D01*
X56450303Y-31460227D01*
X56351721Y-31312689D01*
X56283817Y-31148754D01*
X56249200Y-30974721D01*
X56249200Y-30797279D01*
X56283817Y-30623246D01*
X56351721Y-30459311D01*
X56450303Y-30311773D01*
X56575773Y-30186303D01*
X56723311Y-30087721D01*
X56887246Y-30019817D01*
X57061279Y-29985200D01*
X57238721Y-29985200D01*
X57412754Y-30019817D01*
G37*
G36*
X59952754Y-30019817D02*
G01*
X60116689Y-30087721D01*
X60264227Y-30186303D01*
X60389697Y-30311773D01*
X60488279Y-30459311D01*
X60556183Y-30623246D01*
X60590800Y-30797279D01*
X60590800Y-30974721D01*
X60556183Y-31148754D01*
X60488279Y-31312689D01*
X60389697Y-31460227D01*
X60264227Y-31585697D01*
X60116689Y-31684279D01*
X59952754Y-31752183D01*
X59778721Y-31786800D01*
X59601279Y-31786800D01*
X59427246Y-31752183D01*
X59263311Y-31684279D01*
X59115773Y-31585697D01*
X58990303Y-31460227D01*
X58891721Y-31312689D01*
X58823817Y-31148754D01*
X58789200Y-30974721D01*
X58789200Y-30797279D01*
X58823817Y-30623246D01*
X58891721Y-30459311D01*
X58990303Y-30311773D01*
X59115773Y-30186303D01*
X59263311Y-30087721D01*
X59427246Y-30019817D01*
X59601279Y-29985200D01*
X59778721Y-29985200D01*
X59952754Y-30019817D01*
G37*
G36*
X62492754Y-30019817D02*
G01*
X62656689Y-30087721D01*
X62804227Y-30186303D01*
X62929697Y-30311773D01*
X63028279Y-30459311D01*
X63096183Y-30623246D01*
X63130800Y-30797279D01*
X63130800Y-30974721D01*
X63096183Y-31148754D01*
X63028279Y-31312689D01*
X62929697Y-31460227D01*
X62804227Y-31585697D01*
X62656689Y-31684279D01*
X62492754Y-31752183D01*
X62318721Y-31786800D01*
X62141279Y-31786800D01*
X61967246Y-31752183D01*
X61803311Y-31684279D01*
X61655773Y-31585697D01*
X61530303Y-31460227D01*
X61431721Y-31312689D01*
X61363817Y-31148754D01*
X61329200Y-30974721D01*
X61329200Y-30797279D01*
X61363817Y-30623246D01*
X61431721Y-30459311D01*
X61530303Y-30311773D01*
X61655773Y-30186303D01*
X61803311Y-30087721D01*
X61967246Y-30019817D01*
X62141279Y-29985200D01*
X62318721Y-29985200D01*
X62492754Y-30019817D01*
G37*
G36*
X65032754Y-30019817D02*
G01*
X65196689Y-30087721D01*
X65344227Y-30186303D01*
X65469697Y-30311773D01*
X65568279Y-30459311D01*
X65636183Y-30623246D01*
X65670800Y-30797279D01*
X65670800Y-30974721D01*
X65636183Y-31148754D01*
X65568279Y-31312689D01*
X65469697Y-31460227D01*
X65344227Y-31585697D01*
X65196689Y-31684279D01*
X65032754Y-31752183D01*
X64858721Y-31786800D01*
X64681279Y-31786800D01*
X64507246Y-31752183D01*
X64343311Y-31684279D01*
X64195773Y-31585697D01*
X64070303Y-31460227D01*
X63971721Y-31312689D01*
X63903817Y-31148754D01*
X63869200Y-30974721D01*
X63869200Y-30797279D01*
X63903817Y-30623246D01*
X63971721Y-30459311D01*
X64070303Y-30311773D01*
X64195773Y-30186303D01*
X64343311Y-30087721D01*
X64507246Y-30019817D01*
X64681279Y-29985200D01*
X64858721Y-29985200D01*
X65032754Y-30019817D01*
G37*
G36*
X87892754Y-30019817D02*
G01*
X88056689Y-30087721D01*
X88204227Y-30186303D01*
X88329697Y-30311773D01*
X88428279Y-30459311D01*
X88496183Y-30623246D01*
X88530800Y-30797279D01*
X88530800Y-30974721D01*
X88496183Y-31148754D01*
X88428279Y-31312689D01*
X88329697Y-31460227D01*
X88204227Y-31585697D01*
X88056689Y-31684279D01*
X87892754Y-31752183D01*
X87718721Y-31786800D01*
X87541279Y-31786800D01*
X87367246Y-31752183D01*
X87203311Y-31684279D01*
X87055773Y-31585697D01*
X86930303Y-31460227D01*
X86831721Y-31312689D01*
X86763817Y-31148754D01*
X86729200Y-30974721D01*
X86729200Y-30797279D01*
X86763817Y-30623246D01*
X86831721Y-30459311D01*
X86930303Y-30311773D01*
X87055773Y-30186303D01*
X87203311Y-30087721D01*
X87367246Y-30019817D01*
X87541279Y-29985200D01*
X87718721Y-29985200D01*
X87892754Y-30019817D01*
G37*
M02*
